<?xml version="1.0" standalone="no"?>
<!DOCTYPE svg PUBLIC "-//W3C//DTD SVG 20010904//EN"
 "http://www.w3.org/TR/2001/REC-SVG-20010904/DTD/svg10.dtd">
<svg version="1.0" xmlns="http://www.w3.org/2000/svg"
 width="640.000000pt" height="640.000000pt" viewBox="0 0 640.000000 640.000000"
 preserveAspectRatio="xMidYMid meet">

<g transform="translate(0.000000,640.000000) scale(0.100000,-0.100000)"
fill="#000000" stroke="none">
<path d="M0 3200 l0 -3200 3200 0 3200 0 0 3200 0 3200 -3200 0 -3200 0 0
-3200z m4575 2703 c-3 -37 -7 -87 -7 -110 0 -24 -5 -43 -10 -43 -5 0 -7 -10
-4 -22 3 -13 3 -17 0 -11 -4 10 -9 9 -21 -2 -8 -8 -22 -15 -31 -14 -15 0 -14
1 1 8 17 6 17 8 3 20 -9 7 -22 11 -31 8 -8 -4 -17 -2 -20 2 -7 12 -55 20 -55
10 0 -5 -7 -6 -15 -3 -21 9 -19 27 7 44 11 8 28 23 37 34 9 10 31 33 49 52 17
19 32 38 32 42 0 4 12 22 27 39 37 45 47 30 38 -54z m-2155 -227 c0 -144 -16
-214 -46 -202 -9 3 -12 1 -9 -4 3 -6 1 -10 -5 -10 -7 0 -9 -8 -4 -22 6 -19 5
-20 -8 -7 -8 8 -19 28 -25 44 -13 39 -53 43 -110 9 -24 -14 -43 -20 -43 -14 0
5 3 10 8 10 4 0 13 13 20 29 7 16 24 41 37 55 14 15 25 31 25 37 0 5 5 9 10 9
6 0 10 5 10 10 0 13 38 69 66 95 11 11 28 37 38 58 9 20 21 37 26 37 6 0 10
-56 10 -134z m1959 48 c14 9 43 -5 38 -18 -3 -6 3 -18 11 -26 14 -13 15 -12 8
5 -6 18 -6 19 9 4 18 -18 28 -69 13 -69 -5 0 -6 -4 -3 -10 3 -5 2 -10 -3 -10
-5 0 -12 -8 -15 -17 -3 -10 -10 -33 -16 -51 -5 -18 -6 -30 0 -27 5 3 6 -1 3
-9 -3 -9 -10 -13 -15 -10 -5 3 -9 -5 -9 -17 0 -12 -3 -19 -7 -16 -3 4 -12 2
-20 -4 -10 -9 -13 -8 -13 5 0 10 -4 14 -10 11 -6 -4 -10 6 -10 24 0 16 -7 36
-15 44 -8 8 -11 18 -7 21 12 12 -102 -6 -135 -21 -43 -20 -68 -11 -53 17 6 11
7 20 3 20 -19 0 126 122 164 137 23 10 43 22 43 27 0 5 7 3 15 -4 8 -6 18 -9
24 -6z m-1109 -165 c0 -5 -4 -7 -10 -4 -5 3 -10 2 -10 -4 0 -6 -10 -20 -23
-33 -13 -13 -24 -26 -25 -30 -1 -5 -3 -7 -5 -5 -8 6 -38 -34 -32 -43 3 -5 -1
-10 -10 -10 -9 0 -13 -4 -10 -10 3 -5 1 -10 -6 -10 -8 0 -7 -5 2 -16 12 -15
11 -16 -10 -9 -17 5 -21 4 -16 -5 6 -9 3 -9 -14 -1 -17 10 -22 9 -28 -5 -4
-10 0 -20 10 -26 26 -14 23 -80 -4 -96 -11 -7 -18 -19 -16 -27 3 -7 -6 -23
-19 -36 -23 -21 -24 -22 -18 -4 6 19 5 18 -14 -2 -18 -18 -27 -20 -54 -12 -18
5 -50 9 -71 9 l-39 0 36 36 c20 20 36 41 36 47 0 6 3 8 6 5 5 -6 44 26 44 36
0 12 64 66 74 63 7 -3 13 4 13 14 1 10 36 51 79 91 42 40 82 78 88 85 14 15
46 17 46 2z m995 -65 c10 -11 14 -11 18 -1 3 9 8 9 16 1 14 -13 24 -107 11
-99 -4 3 -11 -2 -14 -11 -3 -8 -10 -13 -15 -10 -5 3 -7 -4 -4 -16 3 -17 2 -19
-5 -9 -7 10 -11 5 -14 -18 -2 -17 -1 -31 4 -31 4 0 8 -4 8 -10 0 -5 -6 -7 -14
-4 -9 3 -19 -9 -29 -34 -9 -22 -24 -43 -34 -46 -10 -4 -18 -6 -19 -4 0 2 -8
-3 -16 -10 -13 -10 -16 -9 -21 8 -3 13 0 20 9 20 8 0 14 5 14 11 0 5 -5 7 -10
4 -6 -3 -17 0 -25 8 -8 9 -27 14 -42 12 -16 -1 -31 2 -35 9 -6 8 -13 8 -28 -1
-28 -18 -54 -17 -46 2 4 12 2 13 -13 5 -14 -7 -22 -6 -31 5 -10 12 -16 13 -26
4 -24 -20 -17 31 8 52 11 11 17 19 12 19 -25 0 88 82 133 97 29 9 50 19 48 23
-2 3 5 7 16 8 44 4 49 6 49 18 0 17 77 16 95 -2z m-1978 -34 c3 -11 9 -20 13
-20 4 0 13 -13 20 -30 7 -16 16 -27 21 -24 5 3 8 -11 7 -30 -2 -22 -8 -36 -17
-36 -8 0 -11 -6 -7 -16 3 -8 2 -12 -4 -9 -6 3 -10 2 -10 -3 0 -5 -9 -19 -20
-32 l-20 -23 -28 25 c-44 41 -78 44 -112 10 -16 -16 -32 -27 -35 -23 -4 3 -13
-2 -20 -12 -10 -14 -15 -15 -21 -6 -4 7 -2 15 4 17 7 2 12 23 12 47 0 53 8 75
26 75 8 0 17 7 21 16 3 8 30 29 59 46 30 16 57 34 60 39 10 17 46 9 51 -11z
m1538 -140 c12 -56 54 -118 83 -125 29 -6 85 -1 115 10 13 6 17 2 17 -15 0
-11 4 -19 9 -15 6 3 14 -14 18 -37 5 -24 5 -45 1 -46 -5 -2 -4 -10 3 -18 7 -8
9 -17 5 -21 -3 -3 -6 -1 -6 6 0 7 -4 9 -10 6 -6 -4 -10 6 -10 23 0 26 -3 28
-29 24 -18 -2 -28 -10 -28 -20 0 -45 -15 -58 -27 -26 -4 11 -2 15 6 11 9 -3
13 6 14 25 1 21 -3 28 -12 24 -8 -3 -14 -1 -14 4 0 6 5 10 11 10 5 0 7 5 3 11
-4 8 -9 7 -15 -2 -7 -12 -9 -12 -9 0 0 8 -3 11 -6 8 -4 -4 1 -18 10 -33 10
-14 15 -28 12 -32 -3 -3 -6 0 -6 7 0 7 -4 10 -9 7 -5 -4 -12 0 -14 6 -3 8 -6
6 -6 -4 -1 -10 -7 -15 -14 -12 -8 3 -11 17 -9 38 2 19 -1 36 -6 40 -16 10 -42
-4 -42 -23 0 -14 2 -14 10 -1 5 8 10 10 10 4 0 -6 -3 -14 -7 -18 -13 -13 -31
-86 -23 -91 12 -7 -13 -55 -29 -55 -11 0 -11 3 -1 15 11 13 10 14 -6 8 -16 -6
-17 -5 -6 9 10 13 10 18 1 24 -7 4 -9 3 -5 -4 4 -7 -4 -10 -24 -10 -17 1 -28
3 -25 6 2 2 -1 14 -7 26 -6 11 -7 18 -3 14 5 -5 14 1 21 11 8 10 29 22 48 25
20 4 38 11 41 16 3 5 0 7 -8 4 -17 -6 -40 42 -31 68 3 12 -1 27 -12 39 -9 10
-14 22 -11 26 4 3 -1 12 -11 20 -16 12 -16 13 1 7 15 -6 17 -3 12 19 -7 28 1
51 15 42 5 -3 11 -19 15 -35z m-1605 -91 c16 -16 32 -39 35 -50 4 -10 10 -19
15 -19 5 0 4 -13 -1 -30 -6 -16 -18 -30 -27 -30 -13 0 -12 -3 4 -15 18 -14 18
-14 -3 -8 -13 3 -23 10 -23 15 0 5 -4 6 -10 3 -5 -3 -10 0 -10 7 0 9 -3 9 -10
-2 -5 -8 -10 -10 -10 -3 0 6 -11 10 -25 8 -14 -1 -25 1 -25 5 0 4 -7 11 -16
14 -16 6 -48 -17 -37 -28 4 -3 -3 -6 -15 -6 -12 0 -23 -8 -27 -20 -4 -11 -11
-17 -17 -14 -6 4 -8 2 -5 -3 4 -6 -3 -19 -15 -29 l-21 -19 7 49 c3 27 6 57 6
68 0 11 4 17 9 14 5 -3 12 5 15 18 6 23 36 40 65 36 9 -1 12 4 8 14 -4 10 -1
16 7 16 7 0 21 9 32 19 28 29 62 26 94 -10z m534 -51 c13 -13 26 -31 29 -40 5
-15 2 -15 -29 2 -39 22 -74 26 -74 8 0 -6 -3 -8 -7 -4 -6 6 43 56 55 56 2 0
13 -10 26 -22z m760 -9 c14 -11 26 -25 26 -31 0 -6 -6 -6 -15 2 -11 9 -15 9
-15 1 0 -7 -4 -9 -10 -6 -5 3 -10 2 -10 -3 0 -5 -13 -12 -30 -14 -16 -3 -30
-1 -30 4 0 5 -4 6 -10 3 -5 -3 -26 5 -46 18 l-35 25 28 10 c49 18 118 14 147
-9z m89 5 c9 -4 17 -10 17 -15 0 -14 -30 -10 -46 5 -17 18 -18 30 -1 22 6 -3
20 -9 30 -12z m-675 -25 c17 -13 22 -23 18 -45 -3 -15 0 -34 6 -41 6 -7 8 -17
4 -20 -4 -4 -10 -3 -14 2 -4 6 -13 11 -20 13 -10 2 -11 -7 -6 -34 5 -27 4 -35
-5 -30 -6 4 -11 2 -11 -3 0 -6 -7 -11 -15 -11 -8 0 -15 5 -15 10 0 18 -20 11
-20 -7 -1 -15 -3 -15 -13 3 -10 17 -20 20 -59 18 -52 -3 -53 -3 -37 29 11 21
11 21 -14 -1 l-25 -24 -12 21 c-6 12 -15 19 -20 16 -5 -3 -11 -1 -15 5 -3 5
-20 10 -36 10 -18 0 -28 -4 -24 -10 3 -5 1 -10 -4 -10 -18 0 -12 15 19 50 18
20 30 28 31 19 0 -10 2 -10 6 -1 3 7 24 12 52 12 40 0 50 -4 58 -22 10 -23 11
-23 45 15 19 20 40 37 46 37 7 0 12 4 12 8 0 14 44 8 68 -9z m1272 7 c0 -3 -4
-8 -10 -11 -5 -3 -10 -1 -10 4 0 6 5 11 10 11 6 0 10 -2 10 -4z m-844 -32 c49
-19 57 -40 19 -50 -14 -3 -25 -11 -25 -18 1 -13 26 -48 34 -47 33 4 37 1 21
-15 -15 -16 -18 -15 -45 5 -30 22 -45 27 -36 12 9 -15 -27 -6 -69 16 -23 12
-58 24 -78 28 -20 4 -37 10 -37 14 0 9 20 37 20 28 0 -5 7 -1 16 7 14 14 35
21 57 17 4 0 7 3 7 7 0 15 73 13 116 -4z m-1153 -93 c23 -11 34 -21 25 -24
-11 -4 -11 -8 1 -28 10 -19 10 -21 0 -11 -21 19 -32 14 -27 -13 4 -21 2 -24
-13 -20 -12 4 -21 -1 -29 -14 -11 -21 -37 -19 -37 3 0 8 8 11 19 8 10 -2 18 1
18 7 0 7 -6 9 -12 5 -7 -4 -10 -4 -6 0 3 4 8 6 10 4 3 -1 12 5 22 15 14 14 16
20 6 32 -9 11 -9 15 -1 15 6 0 11 -4 11 -10 0 -5 5 -10 10 -10 18 0 10 19 -10
25 -12 4 -30 16 -42 28 -11 12 -18 17 -15 11 4 -7 0 -15 -9 -18 -9 -4 -13 -2
-8 5 4 8 0 8 -14 0 -33 -17 -69 -54 -76 -76 -3 -11 -18 -28 -33 -38 -21 -14
-23 -17 -7 -12 14 3 21 1 21 -9 0 -9 -3 -13 -7 -11 -3 2 -12 0 -20 -5 -8 -5
-22 -5 -32 1 -12 6 -18 6 -18 0 0 -6 -6 -8 -12 -6 -16 6 -20 52 -4 52 52 -1
63 6 105 64 24 33 52 64 63 70 10 5 16 15 12 20 -3 6 11 -1 32 -15 22 -15 56
-35 77 -45z m1727 39 c0 -5 -4 -10 -10 -10 -5 0 -10 5 -10 10 0 6 5 10 10 10
6 0 10 -4 10 -10z m139 -35 c6 3 11 1 11 -4 0 -6 -5 -11 -11 -11 -5 0 -7 -5
-4 -10 4 -6 11 -7 17 -4 6 4 8 2 5 -3 -8 -13 57 -58 96 -67 15 -4 27 -11 27
-17 0 -6 -6 -6 -19 1 -11 5 -31 10 -45 10 -14 0 -28 5 -31 10 -4 6 -19 9 -35
7 -36 -6 -58 7 -42 25 7 9 8 26 2 53 -8 35 -7 38 5 21 7 -10 18 -15 24 -11z
m-891 -5 c2 -5 11 -10 20 -10 10 0 24 -6 33 -13 19 -15 32 -48 17 -44 -6 1
-13 -4 -16 -12 -3 -8 0 -11 7 -7 6 4 11 0 11 -9 0 -9 -15 -22 -35 -31 -39 -16
-48 -17 -41 -6 3 5 -13 9 -36 10 -22 1 -47 7 -54 13 -8 6 -27 9 -44 6 -16 -4
-31 -3 -34 1 -3 5 -19 7 -36 6 l-30 -2 22 36 c29 50 30 51 24 17 -5 -27 -4
-28 9 -12 7 11 11 25 8 33 -3 8 1 14 11 14 9 0 16 5 16 11 0 5 4 8 8 5 5 -3
22 -2 37 2 37 10 99 5 103 -8z m-510 -13 c12 -6 22 -14 22 -19 0 -17 -52 -78
-61 -72 -8 5 -13 -10 -10 -29 1 -5 -15 -39 -35 -75 -32 -57 -34 -64 -13 -46
13 12 34 27 47 33 18 10 23 9 29 -4 4 -13 8 -14 14 -4 6 11 9 10 14 -4 4 -9 0
-23 -10 -33 -9 -9 -14 -25 -12 -36 3 -11 1 -16 -6 -11 -6 4 -8 -2 -5 -15 4
-12 3 -20 -2 -17 -4 3 -15 -7 -25 -21 -16 -25 -16 -25 4 -14 19 9 21 8 19 -14
-1 -14 -8 -28 -15 -31 -10 -3 -11 0 -4 14 9 16 7 17 -14 13 -14 -2 -25 -8 -25
-13 0 -5 -7 -9 -15 -9 -10 0 -15 -10 -16 -27 -1 -32 -17 -77 -19 -53 0 12 -4
10 -16 -5 -8 -11 -12 -25 -10 -32 3 -8 -1 -10 -11 -6 -13 5 -15 2 -11 -15 3
-12 3 -21 -1 -20 -12 2 -41 -14 -41 -24 0 -15 -27 -38 -44 -38 -9 0 -16 7 -16
15 0 8 -4 15 -9 15 -5 0 -4 15 2 35 6 19 14 35 19 35 4 0 8 7 8 15 0 8 4 15
10 15 5 0 12 11 16 25 3 14 9 25 13 25 7 0 43 69 43 80 0 3 6 12 14 21 8 9 11
19 7 22 -3 4 -2 7 4 7 6 0 18 11 27 24 l16 25 -44 -5 c-32 -4 -47 -1 -59 11
-9 9 -23 13 -29 10 -7 -4 -5 0 5 8 13 11 15 17 7 22 -9 6 -9 10 1 15 7 5 14
16 15 25 1 9 4 18 6 18 2 1 13 8 26 15 12 7 42 15 65 18 32 5 43 11 43 24 0
18 -30 21 -54 6 -6 -3 -12 2 -14 11 -4 20 29 83 44 83 5 0 6 5 2 12 -4 7 -3 8
4 4 7 -4 19 -3 29 2 17 10 32 8 71 -11z m-398 -7 c0 -5 -2 -10 -4 -10 -3 0 -8
5 -11 10 -3 6 -1 10 4 10 6 0 11 -4 11 -10z m1600 -15 c0 -8 -4 -15 -10 -15
-5 0 -10 7 -10 15 0 8 5 15 10 15 6 0 10 -7 10 -15z m-1555 -5 c3 -5 2 -10 -4
-10 -5 0 -13 5 -16 10 -3 6 -2 10 4 10 5 0 13 -4 16 -10z m1608 -6 c17 -6 24
-24 9 -24 -4 0 -6 -16 -4 -35 3 -23 0 -35 -8 -35 -8 0 -11 9 -8 25 4 20 3 23
-8 14 -8 -6 -12 -15 -9 -19 3 -5 1 -11 -5 -15 -16 -10 -12 41 4 55 8 6 12 19
9 27 -6 14 -8 14 -14 -3 -7 -17 -8 -17 -8 4 -1 16 3 22 12 18 6 -3 20 -9 30
-12z m-1130 -23 c15 -12 18 -25 14 -62 -7 -65 -22 -89 -52 -87 -14 1 -25 8
-25 16 0 9 -5 10 -17 3 -10 -5 -26 -5 -40 0 -16 6 -30 5 -43 -3 -52 -33 -24
27 55 118 29 34 41 40 63 36 15 -2 35 -12 45 -21z m801 -17 c-9 -13 -12 -24
-7 -24 5 0 10 -6 10 -12 0 -7 4 -22 8 -33 4 -12 3 -15 -2 -9 -6 9 -11 8 -20
-1 -10 -10 -9 -14 2 -19 8 -3 21 -20 29 -38 18 -42 85 -120 97 -112 5 3 9 0 9
-5 0 -6 17 -18 38 -27 l37 -16 -30 -12 c-27 -12 -22 -13 64 -15 98 -2 147 -15
104 -27 -13 -3 -23 -10 -23 -15 0 -5 -14 -9 -31 -9 -17 0 -28 -4 -24 -10 3 -5
0 -10 -8 -10 -15 0 -16 -27 -2 -50 8 -13 6 -13 -8 -1 -12 10 -17 10 -17 2 0
-9 -28 -12 -104 -9 -57 2 -102 0 -99 -4 5 -9 3 -9 -47 -11 -33 -2 -35 0 -32
26 3 21 -1 27 -16 27 -11 0 -23 6 -26 13 -3 6 -5 -5 -3 -25 3 -42 -14 -55 -59
-44 -19 5 -24 2 -24 -12 0 -20 -24 -23 -49 -7 -10 5 -12 4 -7 -3 5 -8 -1 -12
-16 -13 -53 -2 -113 -11 -131 -20 -10 -6 -22 -7 -25 -3 -4 4 -1 9 6 11 7 3 19
11 27 20 8 8 15 11 15 7 0 -4 8 0 18 8 9 9 26 18 37 21 15 4 13 5 -7 6 -16 0
-28 -4 -28 -10 0 -7 -10 -9 -26 -5 -21 6 -25 4 -21 -8 4 -10 0 -14 -14 -11
-12 3 -17 0 -13 -7 4 -6 -1 -17 -10 -24 -10 -7 -16 -15 -14 -19 2 -4 -13 -16
-32 -26 -32 -18 -36 -18 -47 -3 -11 15 -13 15 -28 0 -9 -9 -12 -16 -5 -16 6 0
8 -4 5 -10 -3 -5 -15 -10 -26 -10 -11 0 -18 -4 -15 -9 3 -5 -2 -8 -12 -7 -10
0 -16 -5 -15 -14 2 -16 -60 -50 -91 -50 -11 0 -14 -4 -10 -12 5 -7 2 -9 -8 -5
-10 3 -20 -3 -28 -19 -14 -24 -30 -32 -30 -14 0 6 5 10 10 10 6 0 10 4 10 9 0
5 -9 7 -20 4 -12 -3 -19 -8 -16 -10 5 -6 -31 -43 -42 -43 -5 0 -17 -8 -28 -18
-10 -10 -27 -21 -37 -25 -10 -4 -15 -11 -12 -17 3 -5 2 -17 -3 -27 -9 -14 -10
-14 -17 6 -3 11 -11 19 -16 15 -5 -3 -6 -11 -2 -17 4 -7 -2 -5 -12 3 -16 13
-18 13 -13 0 7 -21 -31 -52 -55 -44 -20 6 -62 -29 -53 -45 3 -5 -1 -11 -9 -15
-8 -3 -14 -2 -12 2 4 14 -14 12 -39 -4 -14 -10 -38 -17 -54 -16 -16 0 -32 -4
-35 -9 -4 -5 -15 -5 -27 2 -17 9 -20 9 -15 -3 4 -12 -8 -18 -49 -28 -29 -7
-51 -16 -49 -20 2 -4 -6 -5 -19 -3 -13 3 -27 0 -30 -6 -10 -16 -26 -13 -26 4
0 8 5 15 11 15 5 0 7 5 3 11 -5 8 -10 6 -16 -5 -13 -22 -38 -20 -38 4 0 15 12
23 55 35 30 9 67 22 82 30 16 8 40 18 56 24 15 6 27 15 27 21 0 5 11 10 24 10
14 0 28 5 31 10 4 6 11 7 17 4 6 -4 8 -2 4 4 -4 7 11 13 41 17 27 4 62 10 78
14 34 9 58 4 49 -10 -3 -5 3 -9 13 -9 17 1 56 64 45 74 -3 3 -17 -3 -32 -14
-15 -10 -36 -18 -48 -17 -12 1 -22 1 -22 2 19 65 32 101 41 111 6 8 8 14 3 14
-5 0 -2 4 6 10 8 5 11 13 6 17 -9 10 -38 -26 -30 -38 3 -5 0 -9 -5 -9 -6 0
-11 6 -12 13 0 10 -2 10 -6 0 -2 -7 -16 -13 -29 -13 -14 0 -23 -4 -20 -9 3 -5
-3 -11 -15 -14 -12 -3 -22 0 -26 9 -3 8 -13 14 -23 14 -10 0 -20 7 -24 15 -4
11 -13 14 -31 9 -19 -5 -25 -2 -25 11 0 9 -6 15 -12 12 -8 -2 -12 -15 -10 -31
2 -17 -1 -25 -9 -24 -6 2 -14 -4 -16 -12 -3 -10 -2 -11 4 -4 13 18 38 1 38
-26 0 -15 5 -24 13 -22 8 1 11 -2 8 -7 -4 -5 -2 -12 4 -16 5 -3 10 -17 10 -31
0 -19 -8 -28 -32 -39 -19 -7 -34 -9 -36 -4 -2 5 -8 9 -14 9 -6 0 -8 -7 -4 -15
3 -10 -1 -15 -11 -15 -9 0 -25 -7 -35 -17 -10 -9 -33 -16 -51 -16 -18 0 -41
-8 -53 -19 -12 -10 -31 -20 -43 -21 -11 -1 -21 -5 -21 -9 0 -4 -6 -8 -14 -8
-8 0 -18 -9 -21 -21 -5 -15 -10 -18 -18 -10 -16 16 -37 13 -31 -4 5 -13 -4
-15 -60 -11 -36 2 -66 -1 -66 -5 0 -5 3 -8 8 -8 4 1 10 0 15 -1 7 -2 21 -6 33
-9 3 0 2 -6 -1 -11 -4 -6 -11 -7 -17 -4 -6 4 -25 8 -42 9 -17 1 -25 0 -18 -2
22 -8 13 -25 -12 -21 -18 4 -23 1 -19 -9 3 -8 0 -13 -8 -11 -8 2 -13 -3 -11
-9 1 -7 -5 -13 -13 -13 -27 0 -114 -64 -103 -75 3 -3 13 1 21 10 9 8 18 15 22
15 3 0 22 11 43 24 20 13 54 30 74 37 20 7 35 16 32 21 -3 4 5 4 18 -1 13 -5
22 -15 20 -21 -6 -24 58 -1 84 30 14 16 29 28 33 26 4 -3 14 4 21 15 12 16 60
28 60 15 0 -17 -14 -35 -24 -29 -6 3 -8 3 -4 -1 3 -4 -5 -33 -20 -64 -17 -38
-22 -57 -14 -60 7 -2 12 -11 12 -20 0 -15 -2 -15 -10 -2 -5 8 -10 11 -10 5 0
-5 4 -16 9 -24 10 -15 -8 -41 -28 -41 -14 0 -14 -27 -1 -35 6 -3 7 1 4 9 -8
20 3 20 22 1 13 -12 13 -16 2 -20 -9 -4 -13 -22 -13 -49 0 -24 -3 -42 -6 -40
-3 2 -12 -8 -19 -21 -7 -13 -18 -21 -23 -18 -6 4 -8 0 -4 -11 6 -14 3 -16 -14
-11 -11 4 -26 1 -34 -5 -18 -15 -20 -45 -3 -34 7 4 8 3 4 -4 -7 -12 -36 -5
-36 9 0 5 -5 9 -10 9 -14 0 -8 -22 10 -37 13 -11 13 -12 -3 -7 -13 5 -16 2
-11 -10 8 -21 -4 -20 -29 2 -20 17 -20 17 -3 -9 14 -22 14 -26 1 -26 -8 0 -15
5 -15 11 0 6 -5 3 -11 -7 -6 -9 -13 -15 -17 -13 -4 3 -8 -3 -8 -13 0 -10 6
-18 13 -18 7 0 13 7 13 15 0 9 3 12 7 9 7 -8 -28 -87 -39 -87 -5 0 -8 -5 -8
-11 0 -9 -34 -90 -48 -113 -3 -5 0 -6 6 -2 7 4 12 1 12 -9 0 -9 -4 -13 -10
-10 -5 3 -10 1 -10 -4 0 -17 15 -13 35 9 10 11 15 20 11 20 -3 0 1 14 9 30 9
17 13 36 9 43 -4 7 -4 9 1 5 4 -4 19 16 33 44 14 29 47 74 74 102 51 53 78 58
34 6 -14 -17 -26 -35 -26 -40 0 -21 13 -38 26 -33 8 3 14 3 14 0 0 -13 -31
-14 -44 -1 -13 13 -15 10 -10 -22 3 -31 2 -35 -10 -25 -10 8 -16 9 -21 1 -4
-6 -1 -9 6 -8 15 3 20 -41 7 -58 -4 -6 -2 -11 7 -11 8 0 12 4 9 9 -3 4 -1 8 4
8 6 0 12 -7 16 -15 3 -8 1 -15 -5 -15 -6 0 -3 -8 7 -17 16 -16 15 -18 -4 -26
-27 -12 -50 -3 -62 25 -8 21 -9 20 -9 -9 -1 -18 4 -33 9 -33 6 0 10 -5 10 -11
0 -5 -5 -7 -10 -4 -5 3 -11 -2 -12 -12 0 -10 -2 -22 -3 -28 -2 -5 -3 -16 -4
-23 0 -7 -6 -10 -13 -6 -8 5 -9 -4 -4 -35 6 -38 4 -43 -14 -48 -11 -3 -20 -12
-20 -19 0 -8 -2 -14 -5 -14 -11 0 -64 53 -60 60 3 5 -3 6 -14 3 -11 -3 -26 4
-38 16 -34 37 -72 10 -77 -54 -1 -11 -9 -31 -18 -44 -16 -23 -16 -23 -35 -3
-10 10 -36 41 -57 67 -22 27 -42 43 -44 37 -2 -7 -8 -10 -13 -6 -8 4 -11 -2
-8 -22 0 -3 -10 -14 -22 -25 -12 -10 -23 -33 -24 -49 -4 -42 -12 -48 -26 -17
-7 15 -16 24 -20 21 -5 -3 -9 5 -9 19 0 13 -14 37 -30 54 -21 21 -27 33 -18
36 7 3 3 6 -8 6 -23 1 -48 -21 -37 -32 3 -4 0 -13 -6 -21 -22 -27 -40 2 -44
69 -1 11 -7 26 -15 34 -7 7 -11 20 -8 27 3 7 1 16 -4 19 -15 9 -13 292 2 301
6 4 14 2 16 -4 2 -7 8 -10 13 -6 5 3 5 13 -1 25 -12 21 -3 89 10 89 5 0 15
-28 23 -62 15 -61 15 -62 16 -21 1 23 -4 45 -10 49 -8 4 -9 31 -4 83 8 98 12
111 36 111 18 0 19 -6 15 -72 -5 -83 1 -128 16 -106 5 8 7 -39 5 -119 -2 -73
1 -133 5 -133 4 0 8 -26 9 -57 1 -62 16 -132 18 -85 1 13 6 32 12 43 5 11 14
77 19 147 5 82 14 138 24 157 20 37 20 54 2 61 -15 6 -29 61 -41 162 -7 50
-17 64 -30 42 -4 -6 -10 -8 -15 -5 -4 3 -11 -3 -14 -12 -5 -13 -9 -14 -19 -4
-8 8 -9 14 -1 19 6 4 14 21 17 39 6 28 91 133 100 122 2 -2 11 -31 21 -64 10
-33 21 -69 26 -80 8 -18 9 -17 9 8 1 17 6 27 16 27 8 0 15 5 15 10 0 6 5 10
10 10 15 0 147 144 158 172 2 4 9 8 17 8 7 0 18 7 25 15 7 9 15 13 18 11 2 -3
25 5 51 18 58 29 101 39 171 39 30 -1 44 2 30 5 -36 8 73 27 171 31 42 1 89 6
105 11 32 11 -185 5 -243 -6 -21 -4 -33 -2 -33 5 0 12 52 41 72 40 10 0 10 -2
1 -6 -7 -2 -13 -9 -13 -15 0 -5 17 4 37 21 21 17 45 31 53 31 9 0 21 5 28 12
7 7 12 9 12 5 0 -4 18 3 40 14 22 12 46 19 53 16 8 -3 13 8 14 34 2 29 -1 39
-12 39 -8 0 -15 -4 -15 -9 0 -5 -9 -12 -19 -16 -12 -4 -18 -12 -14 -21 3 -7 1
-14 -5 -14 -6 0 -12 5 -14 12 -3 7 -7 5 -11 -6 -4 -10 -3 -15 3 -11 6 3 10 2
10 -3 0 -5 -9 -12 -20 -15 -22 -6 -23 -3 -14 42 4 17 13 31 21 31 8 0 31 16
51 35 20 19 40 35 44 35 4 0 26 20 49 45 47 51 69 57 69 20 0 -25 25 -45 57
-45 10 0 36 16 57 35 22 19 45 35 52 35 7 0 15 6 18 13 3 6 3 -1 0 -18 -4 -22
-3 -26 5 -15 8 11 12 5 17 -28 4 -27 11 -39 18 -35 6 3 8 3 4 -2 -4 -4 -1 -20
8 -36 14 -28 15 -28 34 -11 47 40 58 49 105 79 55 34 153 83 168 83 6 0 15 7
21 16 6 8 19 16 27 17 9 2 24 11 33 20 10 9 21 15 26 12 4 -3 10 2 13 10 4 8
32 31 64 52 64 42 79 53 131 101 20 17 41 32 47 32 6 0 21 11 33 25 12 14 28
25 35 25 7 0 22 8 33 18 10 10 34 27 52 37 17 11 32 23 32 27 0 4 7 8 15 8 8
0 15 5 15 10 0 6 6 10 13 10 7 0 37 22 67 50 55 50 82 58 54 14z m215 -12
c-24 -17 -33 -11 -24 17 5 17 9 19 25 9 18 -12 18 -12 -1 -26z m-916 13 c-3
-9 -8 -14 -10 -11 -3 3 -2 9 2 15 9 16 15 13 8 -4z m-788 -5 c3 -6 -1 -13 -9
-16 -9 -3 -16 -18 -16 -33 -1 -24 -2 -24 -14 -8 -18 23 -9 67 15 67 10 0 21
-5 24 -10z m392 -22 c-3 -8 -6 -5 -6 6 -1 11 2 17 5 13 3 -3 4 -12 1 -19z
m571 -27 c2 -6 11 -11 19 -11 10 0 13 -6 9 -16 -5 -12 -1 -14 15 -9 18 6 19 4
11 -12 -15 -26 -46 -50 -60 -45 -7 2 -12 -1 -12 -7 0 -6 -9 -11 -21 -11 -11 0
-17 -4 -14 -10 3 -5 -2 -10 -12 -11 -136 -4 -183 -3 -183 3 0 12 23 52 35 60
6 4 6 8 1 8 -20 0 49 56 82 65 46 13 125 11 130 -4z m1727 -30 c-11 -5 -26 -6
-33 -4 -8 4 -10 0 -6 -11 5 -13 0 -16 -25 -16 -19 0 -34 -6 -37 -15 -3 -8 -15
-17 -26 -21 -16 -5 -18 -8 -7 -15 10 -6 10 -9 2 -9 -7 0 -20 12 -30 28 -10 15
-25 32 -33 39 -12 10 -8 12 28 13 23 0 42 -4 42 -10 0 -5 5 -10 10 -10 6 0 10
6 10 14 0 19 16 24 75 25 35 0 44 -3 30 -8z m-2717 -26 c-3 -3 -9 2 -12 12 -6
14 -5 15 5 6 7 -7 10 -15 7 -18z m-72 -20 c8 -31 -3 -78 -17 -70 -5 4 -7 16
-3 27 4 14 2 18 -5 14 -7 -5 -11 4 -11 23 0 38 27 42 36 6z m302 -51 c-2 -30
-7 -54 -12 -54 -4 0 -6 -29 -3 -65 3 -36 1 -67 -4 -71 -21 -13 -6 -34 32 -44
42 -12 61 -36 38 -50 -7 -5 -17 -6 -22 -3 -5 3 -4 -4 2 -15 10 -19 8 -20 -13
-16 -14 2 -26 -1 -29 -10 -3 -7 -15 -16 -26 -19 -17 -4 -22 1 -26 27 -4 17 -2
44 4 59 6 16 7 27 1 27 -13 0 -43 -107 -37 -132 6 -20 -19 -58 -38 -58 -6 0
-17 9 -25 19 -7 11 -17 18 -21 16 -11 -7 -15 26 -8 75 3 25 7 41 7 35 3 -16
51 61 51 81 0 11 3 34 7 52 5 25 9 30 19 22 10 -9 15 -3 20 22 4 18 12 39 17
46 7 8 7 12 0 12 -6 0 4 24 21 54 18 29 36 52 40 49 4 -3 7 -29 5 -59z m2263
45 c33 -23 38 -41 12 -38 -10 1 -25 1 -33 0 -13 -1 -13 -2 0 -12 12 -8 10 -9
-9 -7 -21 3 -26 -3 -34 -32 -9 -35 -9 -35 -19 -10 -5 14 -16 29 -24 33 -8 5
-12 12 -9 18 4 5 0 9 -7 9 -21 0 -36 20 -31 39 7 27 116 28 154 0z m-2508 -41
c-2 -5 -10 -8 -16 -8 -8 0 -8 3 2 9 9 6 10 11 2 15 -6 4 -8 12 -4 19 7 12 24
-23 16 -35z m56 -3 l0 -20 -9 20 c-5 11 -9 27 -9 35 -1 13 0 13 9 0 5 -8 9
-24 9 -35z m2244 2 c-3 -6 -1 -7 5 -3 13 8 62 -32 62 -51 0 -8 4 -12 8 -9 5 3
9 -2 9 -10 0 -9 -6 -13 -15 -9 -7 3 -25 -4 -39 -15 -14 -11 -32 -20 -40 -20
-8 0 -11 -5 -7 -12 3 -7 -6 0 -20 16 -15 17 -24 36 -22 43 3 7 1 13 -5 13 -6
0 -8 7 -5 16 5 14 4 15 -7 5 -11 -9 -17 -8 -27 4 -7 9 -10 18 -6 22 3 3 6 1 6
-6 0 -9 4 -9 14 1 8 7 12 16 10 20 -5 8 44 15 68 10 10 -3 15 -9 11 -15z
m-1415 -43 c24 -5 29 -10 24 -27 -4 -16 -2 -19 12 -14 12 5 16 3 14 -5 -3 -7
-10 -13 -15 -13 -6 0 -15 -4 -20 -9 -5 -5 -3 -6 5 -2 7 4 12 1 12 -8 0 -8 -6
-16 -12 -19 -10 -4 -10 -7 0 -18 6 -7 12 -8 12 -3 0 6 7 11 15 11 11 0 12 -4
4 -14 -14 -16 -71 -17 -86 -2 -6 6 -17 8 -23 4 -8 -5 -1 -14 20 -27 18 -10 29
-22 26 -26 -4 -3 -11 0 -16 8 -6 8 -10 11 -10 5 0 -5 -5 -3 -10 5 -7 12 -33
15 -123 15 l-115 0 9 24 c5 13 18 34 28 48 17 21 20 21 23 6 3 -16 5 -16 24 3
12 12 23 27 26 34 6 20 118 35 176 24z m-470 -12 c6 -1 12 -8 12 -15 0 -20
-36 -89 -63 -120 -24 -26 -25 -27 -45 -10 -12 10 -22 25 -24 33 -2 8 -10 20
-18 27 -13 10 -12 11 5 10 14 -1 21 5 23 21 2 12 8 22 14 22 6 0 8 3 5 7 -4 3
1 11 10 18 14 11 35 12 81 7z m-750 -66 l33 -12 -21 -24 c-16 -18 -23 -21 -32
-12 -9 9 -9 12 1 12 7 0 9 5 6 10 -3 6 -17 7 -31 4 -15 -4 -24 -2 -24 6 0 7 7
10 16 6 14 -5 15 -4 4 9 -16 19 -1 19 48 1z m942 10 c0 -3 -4 -8 -10 -11 -5
-3 -10 -1 -10 4 0 6 5 11 10 11 6 0 10 -2 10 -4z m-839 -26 c13 -8 19 -7 19 0
0 6 5 8 10 5 15 -10 -39 -75 -56 -68 -8 3 -14 2 -13 -3 1 -5 -1 -17 -5 -26 -7
-15 -10 -15 -22 -3 -8 7 -14 22 -14 32 1 15 3 14 13 -5 7 -12 16 -20 20 -16 4
4 1 14 -6 22 -9 13 -9 14 1 8 6 -4 12 -3 12 3 0 5 -7 14 -16 19 -14 8 -14 10
1 25 19 20 29 21 56 7z m108 -31 c3 -12 1 -12 -14 1 -14 11 -17 12 -14 2 5
-16 98 -51 117 -45 6 3 12 -1 12 -7 0 -6 7 -4 17 6 11 11 18 13 21 5 2 -6 11
-11 19 -11 13 0 13 3 3 15 -10 13 -9 15 9 15 11 0 21 5 21 12 0 6 3 8 7 5 3
-4 12 1 19 11 7 9 15 14 18 11 10 -10 -5 -39 -20 -39 -8 0 -14 -7 -14 -17 0
-9 -3 -13 -6 -10 -4 4 -17 -5 -30 -20 -13 -15 -26 -24 -30 -20 -4 4 -2 7 4 7
7 0 12 5 12 12 0 6 -7 4 -18 -5 -10 -10 -22 -14 -27 -10 -4 5 -5 2 -1 -4 4 -7
2 -21 -3 -30 -6 -10 -11 -13 -11 -8 0 6 -4 4 -8 -3 -11 -17 -2 -73 10 -66 6 4
9 1 6 -6 -2 -8 11 -43 29 -78 31 -61 32 -66 17 -84 -10 -10 -25 -18 -36 -18
-10 0 -18 -4 -18 -9 0 -5 -9 -11 -20 -14 -11 -3 -18 -1 -14 4 3 5 1 9 -5 9
-13 0 -29 54 -37 128 -4 35 -12 69 -19 76 -7 7 -11 24 -8 39 3 15 -1 34 -8 43
-12 14 -14 14 -26 -2 -11 -16 -13 -13 -13 22 0 22 -5 45 -11 51 -14 14 -4 32
25 43 26 11 38 8 45 -11z m885 -49 c6 -6 18 -10 28 -10 10 0 18 -5 18 -11 0
-5 5 -7 10 -4 6 3 10 3 10 -2 -1 -13 -80 -64 -91 -58 -5 4 -9 0 -9 -8 0 -13
-39 -37 -61 -37 -6 0 -25 -11 -43 -25 -18 -14 -35 -22 -39 -19 -3 3 -15 0 -27
-6 -17 -9 -21 -9 -15 0 4 6 1 19 -7 28 -45 55 13 152 92 152 11 0 20 4 20 9 0
12 102 3 114 -9z m-967 -66 c-3 -3 -12 -4 -19 -1 -8 3 -5 6 6 6 11 1 17 -2 13
-5z m53 -24 c0 -5 -2 -10 -4 -10 -3 0 -8 5 -11 10 -3 6 -1 10 4 10 6 0 11 -4
11 -10z m2668 -187 c-10 -2 -18 -9 -18 -15 0 -6 -35 -46 -77 -88 -109 -108
-135 -138 -129 -148 3 -5 -5 -8 -17 -8 -13 1 -21 -4 -20 -11 2 -7 -6 -13 -17
-13 -11 0 -20 -4 -20 -10 0 -5 -9 -10 -20 -10 -23 0 -25 -10 -7 -30 10 -12 9
-12 -4 -2 -14 10 -20 10 -31 -1 -7 -7 -19 -12 -27 -9 -8 3 -11 0 -7 -7 5 -7 1
-9 -8 -5 -9 3 -16 2 -16 -4 0 -6 -14 -13 -31 -17 -17 -4 -28 -10 -25 -13 4 -3
-21 -14 -54 -24 -33 -10 -60 -23 -60 -29 0 -6 -9 -7 -22 -4 -17 6 -20 4 -15
-9 5 -12 0 -16 -17 -16 -18 0 -23 5 -23 25 0 14 3 25 8 25 5 0 9 6 9 13 0 7
11 25 26 40 14 15 22 32 19 37 -3 6 -1 10 4 10 6 0 11 7 11 15 0 8 -4 15 -10
15 -5 0 -10 6 -10 13 0 15 7 16 93 17 37 0 57 5 57 12 0 9 3 9 11 1 6 -6 18
-9 26 -6 12 5 12 7 1 14 -8 5 8 9 42 9 44 0 59 4 70 20 8 11 20 20 26 20 6 0
17 7 24 15 7 9 29 23 49 32 20 10 41 21 46 25 27 20 130 113 133 120 2 4 13 7
25 7 17 -1 18 -2 5 -6z m-1358 -22 c0 -29 -23 -101 -32 -101 -5 0 -8 -7 -8
-16 0 -21 -49 -64 -74 -64 -13 0 -17 -5 -13 -20 5 -21 -7 -28 -18 -10 -9 15
-38 12 -32 -3 5 -14 -29 -21 -38 -7 -3 4 -15 6 -27 2 -15 -4 -19 -2 -14 7 5 7
18 11 29 10 35 -2 39 0 24 15 -24 24 -70 25 -61 1 10 -24 -17 -17 -48 12 -30
29 -37 49 -14 40 10 -4 16 5 20 29 4 20 13 34 21 34 8 0 15 5 15 10 0 6 3 9 8
8 4 -1 26 10 49 25 24 15 47 27 53 27 5 0 10 4 10 8 0 4 34 9 75 11 70 2 75 1
75 -18z m-1328 -80 c4 -32 -18 -38 -24 -6 -3 14 -1 25 4 25 5 0 6 6 2 13 -5 8
-4 9 4 2 6 -6 13 -21 14 -34z m1664 4 c9 -19 23 -35 31 -35 8 0 12 -4 8 -9 -3
-5 3 -12 12 -14 11 -3 7 -5 -10 -6 -18 -1 -26 3 -21 10 4 8 0 9 -15 4 -15 -5
-21 -2 -21 9 0 9 -5 16 -11 16 -8 0 -8 5 1 15 8 10 9 15 2 15 -6 0 -9 7 -6 15
8 21 11 19 30 -20z m197 -65 c-3 -11 -9 -17 -15 -14 -5 3 -4 12 3 20 16 19 18
18 12 -6z m124 5 c0 -8 -4 -15 -9 -15 -4 0 -8 7 -8 15 0 8 4 15 8 15 5 0 9 -7
9 -15z m-49 -48 c9 -10 6 -13 -12 -13 -16 0 -22 5 -19 13 3 7 9 13 13 13 4 0
12 -6 18 -13z m-275 -49 c-24 -48 -64 -98 -78 -98 -3 0 -16 -9 -28 -20 -12
-11 -27 -18 -34 -16 -7 3 -14 2 -17 -3 -3 -4 -26 -8 -52 -10 -26 -1 -51 -4
-56 -7 -4 -3 -16 -1 -25 4 -13 8 -3 12 42 17 33 3 68 10 77 15 10 6 24 10 32
10 7 0 29 13 47 30 19 16 37 30 42 30 4 0 7 5 7 12 0 6 7 19 16 29 8 9 17 26
19 36 2 10 4 19 4 21 1 1 8 2 16 2 11 0 8 -12 -12 -52z m204 5 c16 -10 31 -22
35 -28 4 -5 12 -11 18 -11 5 -1 15 -2 21 -3 5 0 7 -6 4 -12 -4 -6 2 -13 14
-16 11 -3 18 -9 15 -14 -7 -12 7 -11 26 1 10 6 11 10 3 10 -7 0 -13 4 -13 9 0
12 37 2 50 -14 11 -13 -10 -78 -30 -90 -5 -3 -10 -17 -10 -30 0 -29 -11 -36
-58 -39 -20 -1 -47 -8 -59 -14 -12 -7 -29 -12 -38 -12 -10 0 -13 -5 -9 -12 4
-7 3 -8 -4 -4 -6 4 -20 2 -30 -3 -10 -6 -41 -12 -68 -15 -27 -3 -43 -3 -35 0
11 5 11 8 0 16 -11 7 -11 11 -1 15 37 15 58 82 31 99 -8 4 -9 -3 -5 -24 6 -25
3 -33 -21 -51 -23 -19 -38 -22 -93 -20 -75 3 -88 -13 -17 -21 26 -3 47 -2 47
2 0 18 26 6 36 -16 11 -25 11 -25 -55 -31 -36 -4 -81 -8 -98 -10 -18 -2 -35 0
-38 4 -2 5 -15 6 -27 4 -13 -2 -55 7 -94 21 -39 14 -80 26 -91 26 -27 0 -43
19 -33 39 5 9 11 24 14 34 7 21 44 20 171 -2 33 -5 62 -6 65 -2 3 5 29 14 58
21 30 7 52 18 52 25 0 7 14 19 30 27 17 7 30 17 30 22 0 4 7 6 15 2 10 -4 15
1 15 14 0 10 18 38 40 61 22 23 38 44 35 47 -3 3 3 11 12 17 19 14 44 8 90
-22z m-2091 0 c2 -30 -12 -30 -18 0 -3 13 0 24 6 24 6 0 12 -11 12 -24z m884
17 c0 -5 -4 -10 -10 -10 -5 0 -10 5 -10 10 0 6 5 10 10 10 6 0 10 -4 10 -10z
m1350 5 c0 -10 -45 -23 -55 -17 -5 4 4 10 20 13 17 4 31 7 33 8 1 0 2 -1 2 -4z
m40 -9 c0 -2 -7 -7 -16 -10 -8 -3 -12 -2 -9 4 6 10 25 14 25 6z m-1780 -30 c0
-2 -7 -7 -16 -10 -8 -3 -12 -2 -9 4 6 10 25 14 25 6z m305 -36 c-3 -5 -11 -10
-16 -10 -6 0 -7 5 -4 10 3 6 11 10 16 10 6 0 7 -4 4 -10z m2453 -65 c-3 -3
-36 -8 -73 -11 -75 -5 -85 -9 -85 -30 0 -11 -4 -12 -19 -4 -27 14 -34 13 -27
-5 3 -8 1 -15 -4 -15 -6 0 -10 6 -10 13 0 6 -5 4 -11 -6 -6 -9 -14 -15 -19
-12 -5 3 -11 -3 -15 -14 -3 -10 -16 -22 -29 -25 -12 -3 -39 -21 -59 -40 -20
-18 -38 -31 -41 -28 -4 3 -6 -2 -6 -12 0 -9 -7 -19 -15 -22 -8 -4 -13 -9 -11
-13 2 -3 -9 -25 -25 -49 -16 -23 -29 -47 -29 -52 0 -6 -5 -10 -11 -10 -5 0 -8
-4 -5 -8 3 -5 -3 -18 -13 -29 -10 -11 -22 -30 -26 -42 -6 -21 -8 -22 -26 -5
-20 18 -26 44 -10 44 5 0 19 16 31 35 12 20 26 32 33 28 7 -4 8 0 4 12 -6 14
-3 16 12 12 17 -4 18 -2 11 19 -7 17 -6 24 3 24 6 0 26 23 42 50 17 27 34 50
39 50 5 0 4 6 -1 13 -6 6 -13 24 -16 38 -8 31 22 69 56 70 12 0 42 6 67 13 43
13 299 22 288 11z m-2965 -12 c-7 -2 -19 -2 -25 0 -7 3 -2 5 12 5 14 0 19 -2
13 -5z m1260 -40 c-7 -2 -19 -2 -25 0 -7 3 -2 5 12 5 14 0 19 -2 13 -5z m-473
-13 c0 -5 -4 -10 -9 -10 -6 0 -13 5 -16 10 -3 6 1 10 9 10 9 0 16 -4 16 -10z
m390 -25 c0 -8 -4 -15 -9 -15 -5 0 -11 -9 -14 -20 -4 -17 -11 -19 -44 -14 -21
3 -43 10 -49 15 -6 5 -13 6 -17 3 -3 -3 -21 2 -40 11 -19 9 -63 17 -98 19 -35
2 -72 4 -81 5 -10 0 -18 4 -18 9 0 4 83 6 185 4 154 -2 185 -5 185 -17z m-486
-142 c-5 -5 -12 -12 -16 -18 -4 -6 -8 -2 -8 8 0 9 7 17 17 17 9 0 12 -3 7 -7z
m126 -64 c0 -5 -4 -9 -10 -9 -5 0 -10 7 -10 16 0 8 5 12 10 9 6 -3 10 -10 10
-16z m-190 7 c0 -2 -7 -7 -16 -10 -8 -3 -12 -2 -9 4 6 10 25 14 25 6z m-193
-87 c25 -10 51 -26 59 -34 9 -8 25 -15 37 -15 32 0 56 -18 39 -28 -7 -5 -12
-13 -11 -18 1 -5 1 -23 0 -41 -1 -24 -5 -31 -16 -27 -9 4 -18 -1 -22 -12 -7
-19 -32 -43 -45 -44 -11 0 -10 38 3 63 10 21 10 22 -5 2 -8 -11 -20 -25 -26
-32 -5 -7 -10 -20 -10 -30 0 -26 -16 -47 -29 -39 -6 4 -11 2 -11 -3 0 -6 -4
-11 -10 -11 -5 0 -10 20 -10 44 0 30 -5 46 -15 50 -8 3 -15 12 -15 21 0 8 -7
15 -16 15 -8 0 -12 5 -9 10 3 6 1 10 -6 10 -7 0 -9 3 -6 7 4 3 1 16 -5 27 -12
19 -13 32 -9 79 0 9 6 17 12 17 5 0 7 -4 4 -10 -3 -5 -1 -10 4 -10 6 0 11 -10
11 -22 0 -15 14 -32 36 -48 20 -14 46 -35 58 -46 21 -20 24 -20 33 -5 8 13 6
22 -7 38 -10 12 -20 19 -24 16 -3 -4 -6 -1 -6 5 0 7 -7 12 -15 12 -9 0 -15 6
-13 13 1 6 -6 26 -15 44 -9 18 -17 45 -17 60 l0 28 17 -34 c11 -23 30 -39 60
-52z m291 36 c1 -1 -13 -10 -33 -19 -19 -9 -35 -18 -35 -19 0 -2 11 -4 23 -5
13 -1 34 8 46 19 12 12 25 18 28 15 4 -3 -2 -13 -13 -21 -18 -14 -18 -15 9
-11 29 5 34 -3 15 -23 -7 -7 -8 -11 -3 -9 6 2 10 -1 10 -7 0 -8 -10 -11 -52
-17 -7 -1 -13 -7 -13 -15 0 -7 -5 -13 -11 -13 -5 0 -8 -3 -5 -8 2 -4 -2 -15
-9 -25 -12 -16 -13 -16 -17 8 -3 14 -1 25 3 25 5 0 9 5 9 11 0 5 -4 8 -9 5 -5
-3 -14 1 -21 9 -7 8 -10 15 -6 15 18 0 -39 42 -65 47 -19 4 -27 9 -21 15 6 6
18 8 28 6 10 -2 26 4 36 14 12 12 27 15 60 11 23 -3 44 -7 46 -8z m157 6 c3
-5 1 -12 -5 -16 -5 -3 -10 1 -10 9 0 18 6 21 15 7z m-377 -35 c13 5 14 4 3 -4
-9 -7 -24 -6 -43 0 -21 7 -26 13 -17 18 7 5 18 2 26 -5 7 -8 21 -12 31 -9z
m1888 -60 c22 -23 17 -34 -16 -32 -28 1 -29 2 -13 14 16 11 16 14 3 22 -11 7
-12 10 -2 10 7 0 20 -6 28 -14z m-50 -51 c3 -14 10 -25 16 -25 10 0 4 -31 -14
-67 -9 -18 -14 -20 -25 -11 -11 9 -13 8 -11 -3 2 -8 -2 -13 -9 -12 -7 2 -10
-4 -7 -12 4 -9 -3 -16 -20 -21 -16 -4 -23 -11 -19 -18 3 -6 -3 -3 -14 7 -24
21 -21 45 9 77 11 11 17 27 14 35 -3 8 -1 17 4 20 4 3 10 0 12 -6 2 -6 12 5
23 25 23 42 32 45 41 11z m-1180 -13 c3 -25 5 -27 14 -12 15 23 12 -49 -4 -85
l-13 -30 -13 40 c-7 22 -17 43 -22 46 -5 3 -3 12 5 20 7 8 12 20 9 28 -3 8 1
12 9 9 8 -3 15 -10 15 -16z m-161 -32 c-2 -4 3 -16 11 -26 14 -18 15 -17 10
11 -6 28 -5 29 9 11 19 -25 19 -86 1 -131 -22 -51 -42 -46 -41 11 1 30 -1 41
-7 32 -7 -9 -8 -4 -5 14 2 15 0 25 -4 22 -5 -3 -9 -1 -9 5 0 5 5 13 11 17 6 3
9 14 6 23 -2 10 1 18 9 18 7 0 11 -3 9 -7z m-105 -109 c0 -36 -16 -81 -29 -81
-9 0 -26 47 -23 63 1 4 -3 7 -9 7 -5 0 -8 4 -4 10 3 5 13 6 21 3 12 -4 15 0
14 18 -3 38 -1 41 15 25 8 -8 15 -28 15 -45z m1326 -19 c-4 -3 -11 0 -16 8
-15 24 -11 33 6 15 9 -9 13 -19 10 -23z m-29 -26 c-21 -21 -30 -20 -19 2 5 9
7 24 4 32 -3 12 -1 12 13 -2 16 -15 16 -18 2 -32z m-1894 19 c-3 -9 -8 -14
-10 -11 -3 3 -2 9 2 15 9 16 15 13 8 -4z m453 -12 c7 -25 8 -25 15 -8 13 34
11 -39 -3 -90 -12 -43 -28 -61 -28 -31 0 8 -10 32 -22 52 -12 21 -17 34 -10
30 14 -8 14 0 3 29 -9 22 4 45 25 45 8 0 17 -12 20 -27z m-1607 -70 c1 -42 5
-79 10 -82 12 -8 12 -91 0 -91 -5 0 -9 -5 -9 -11 0 -6 -7 -17 -15 -25 -13 -14
-15 -10 -17 38 -2 62 5 212 12 246 0 1 4 2 9 2 5 0 9 -35 10 -77z m811 58 c0
-4 -6 -8 -14 -8 -8 0 -12 6 -9 14 5 13 23 9 23 -6z m314 -20 c3 -5 -1 -11 -9
-14 -9 -4 -12 -1 -8 9 6 16 10 17 17 5z m293 -17 c-3 -3 3 -21 13 -39 14 -25
18 -51 17 -104 -2 -40 -7 -75 -13 -79 -6 -4 -13 -13 -16 -21 -2 -8 -12 13 -22
47 -9 34 -21 62 -26 62 -17 0 -16 36 4 75 21 44 36 65 44 65 3 0 3 -3 -1 -6z
m1075 -17 c-12 -13 -22 -31 -22 -40 0 -9 -5 -16 -11 -14 -6 1 -13 -13 -15 -31
-2 -18 -11 -46 -19 -62 -19 -36 -19 -44 0 -36 8 3 14 2 14 -2 -3 -20 2 -32 15
-32 21 0 30 -20 16 -33 -10 -9 -11 -9 -5 2 5 9 4 12 -3 7 -15 -9 -16 -56 -1
-56 5 0 7 -5 4 -11 -5 -6 -12 -4 -21 8 -15 20 -19 6 -5 -16 11 -17 3 -43 -10
-35 -5 3 -14 -8 -20 -25 -11 -30 -38 -43 -40 -18 0 6 -2 26 -3 42 -2 17 3 43
11 59 9 20 10 33 3 40 -13 13 -13 46 0 46 5 0 8 -6 6 -12 -1 -7 -1 -10 1 -5 3
4 11 7 18 7 8 0 17 5 20 11 4 6 0 9 -11 7 -15 -2 -19 4 -20 27 -1 33 14 75 28
75 4 0 8 8 8 18 0 10 3 22 8 26 4 4 8 12 8 17 1 5 2 14 3 19 0 6 6 10 12 10 6
0 17 7 25 15 25 24 29 17 6 -8z m-128 -49 c-4 -13 -10 -25 -14 -28 -4 -3 -10
-15 -14 -27 -4 -13 -11 -23 -16 -23 -5 0 -17 -15 -26 -32 -9 -18 -23 -37 -31
-41 -7 -5 -11 -12 -8 -18 4 -5 -1 -9 -10 -9 -9 0 -13 -4 -10 -10 3 -5 3 -10
-2 -10 -4 0 -25 -4 -45 -9 -21 -5 -36 -5 -33 -1 3 5 -1 10 -7 13 -7 3 5 12 27
22 41 17 138 112 130 125 -3 5 8 19 24 33 17 14 27 28 24 31 -4 3 -1 6 6 6 8
0 10 -8 5 -22z m420 -53 c-3 -5 2 -1 10 9 20 25 29 17 10 -8 -11 -15 -16 -17
-28 -7 -8 7 -12 19 -9 28 5 11 7 12 14 2 4 -7 5 -18 3 -24z m-2037 -7 c-3 -8
-6 -5 -6 6 -1 11 2 17 5 13 3 -3 4 -12 1 -19z m56 -13 c-7 -21 -13 -19 -13 6
0 11 4 18 10 14 5 -3 7 -12 3 -20z m357 -35 c0 -5 -2 -10 -4 -10 -3 0 -8 5
-11 10 -3 6 -1 10 4 10 6 0 11 -4 11 -10z m-35 -30 c3 -5 1 -10 -4 -10 -6 0
-11 5 -11 10 0 6 2 10 4 10 3 0 8 -4 11 -10z m76 -45 c0 -19 1 -19 8 -1 4 10
7 -15 6 -55 -2 -105 -4 -123 -12 -116 -6 7 -32 -21 -33 -35 0 -16 19 -7 23 10
3 12 5 13 6 2 1 -22 -19 -48 -26 -32 -2 6 -11 12 -19 12 -8 0 -14 10 -15 23 0
12 -3 16 -6 10 -7 -18 -23 -16 -23 2 0 8 -4 15 -9 15 -5 0 -11 9 -14 20 -3 11
-1 20 3 20 5 0 11 -8 13 -17 4 -14 5 -12 6 5 1 14 -5 22 -16 23 -16 1 -16 2
-1 6 9 2 18 10 21 17 8 20 -4 66 -16 59 -7 -4 -8 0 -4 11 4 10 7 21 7 26 0 11
26 17 67 16 26 -1 33 -5 34 -21z m-1121 -37 c0 -16 -4 -28 -9 -28 -9 0 -20 67
-12 75 8 9 21 -19 21 -47z m2105 -62 c2 -31 0 -56 -4 -56 -4 0 -7 -10 -6 -22
1 -13 -2 -34 -7 -47 -7 -21 -7 -22 7 -11 16 13 18 10 9 -14 -3 -9 -12 -12 -22
-9 -12 5 -14 2 -9 -11 5 -13 1 -19 -13 -23 -21 -5 -28 -33 -9 -33 5 0 7 -5 3
-11 -3 -6 -9 -7 -13 -3 -3 5 -12 10 -19 12 -10 2 -11 -4 -7 -19 6 -17 4 -21
-8 -16 -9 3 -17 2 -19 -3 -6 -18 -52 -16 -56 3 -2 12 3 17 17 17 11 0 28 12
38 28 10 15 21 29 24 32 4 3 17 25 29 50 12 25 29 58 37 73 10 18 13 42 10 64
-6 33 1 69 10 59 2 -2 6 -29 8 -60z m-760 -6 c7 -12 -2 -12 -30 0 -19 8 -19 9
2 9 12 1 25 -3 28 -9z m-41 -26 c3 -8 2 -12 -4 -9 -6 4 -11 -10 -11 -32 -1
-25 -3 -30 -6 -14 -4 22 3 71 11 71 2 0 7 -7 10 -16z m-813 -90 c8 -45 5 -54
-10 -26 -17 31 -22 74 -8 69 7 -2 15 -21 18 -43z m269 15 c0 -5 -4 -9 -10 -9
-5 0 -10 7 -10 16 0 8 5 12 10 9 6 -3 10 -10 10 -16z m55 -135 c6 -134 5 -152
-9 -157 -9 -4 -16 -11 -16 -17 0 -6 6 -8 13 -4 6 4 1 -3 -12 -16 -18 -17 -25
-20 -31 -10 -5 7 -6 19 -3 27 3 7 -1 13 -9 13 -14 0 -16 5 -20 49 -1 11 -6 17
-10 15 -4 -3 -9 6 -9 20 -2 42 -3 46 -14 54 -5 4 -11 14 -11 22 -1 8 -6 33
-11 55 -6 24 -6 51 -1 64 l8 24 19 -22 c10 -11 32 -24 49 -27 27 -6 31 -3 42
31 7 20 13 35 15 33 2 -2 6 -71 10 -154z m1369 108 c-17 -4 -18 -29 -1 -35 9
-3 9 -7 -1 -19 -9 -11 -10 -18 -2 -23 5 -3 10 -14 10 -25 0 -13 -5 -17 -21
-13 -14 4 -19 12 -16 25 3 10 -1 25 -10 33 -8 8 -10 15 -4 15 6 0 19 18 28 40
14 31 19 36 24 23 4 -11 1 -19 -7 -21z m-1954 -12 c0 -10 7 -26 16 -34 8 -9
11 -16 6 -16 -15 0 -44 38 -37 49 3 6 1 11 -4 11 -6 0 -11 4 -11 10 0 5 7 7
15 4 8 -4 15 -14 15 -24z m-178 -6 c12 -1 25 -3 28 -3 3 -1 7 -18 8 -38 2 -21
8 -40 14 -44 7 -4 7 -8 -2 -11 -8 -2 -5 -11 8 -28 24 -31 35 -83 16 -76 -8 3
-11 0 -7 -10 4 -10 0 -12 -11 -8 -15 6 -20 17 -17 37 0 4 -4 7 -10 7 -15 0
-35 22 -43 48 -4 12 -12 22 -17 22 -5 0 -9 9 -9 20 0 11 -5 20 -11 20 -6 0 -9
9 -6 20 3 11 1 20 -4 20 -15 0 -10 22 8 36 13 8 20 9 25 2 3 -6 17 -12 30 -14z
m314 -10 c2 -12 -1 -13 -12 -3 -7 6 -11 16 -8 21 7 11 17 3 20 -18z m709 7 c3
-5 1 -12 -5 -16 -5 -3 -10 1 -10 9 0 18 6 21 15 7z m723 -56 c28 -45 31 -65
22 -141 -4 -43 -6 -83 -3 -91 3 -7 -2 -13 -12 -13 -9 0 -13 5 -10 10 3 6 1 10
-5 10 -6 0 -8 10 -4 24 8 32 -6 58 -17 30 -4 -10 -8 37 -8 106 -1 103 1 121
12 105 6 -11 18 -29 25 -40z m-1151 3 c-3 -8 -6 -5 -6 6 -1 11 2 17 5 13 3 -3
4 -12 1 -19z m657 -13 c-4 -8 -11 -12 -16 -9 -11 7 -28 -13 -28 -35 0 -8 6
-11 15 -7 9 3 15 0 15 -10 0 -10 -7 -14 -22 -12 -16 2 -24 12 -29 38 -9 44 -5
50 36 50 26 0 33 -3 29 -15z m866 -75 c0 -16 -4 -30 -9 -30 -5 0 -9 14 -9 30
1 17 5 30 10 30 4 0 8 -13 8 -30z m-80 -11 c0 -11 5 -17 10 -14 6 3 16 0 23
-7 17 -17 30 -51 17 -43 -6 3 -10 1 -10 -4 0 -6 -6 -10 -12 -8 -8 1 -13 -9
-13 -25 0 -14 -3 -30 -7 -34 -5 -4 -8 -21 -9 -38 -1 -35 -16 -81 -19 -56 -1 8
-6 4 -10 -10 l-8 -25 -1 28 c-1 18 4 27 14 27 19 0 19 0 -1 39 -9 18 -14 43
-11 56 2 14 0 22 -4 19 -5 -3 -8 5 -6 18 1 14 -3 22 -10 21 -16 -4 -6 23 21
52 27 29 36 30 36 4z m-845 -19 c-3 -5 4 -11 14 -15 20 -6 19 -7 -2 -28 -23
-23 -44 -30 -52 -17 -11 18 -16 82 -6 75 6 -3 11 -1 11 5 0 8 6 8 20 0 11 -6
18 -15 15 -20z m-28 -181 c9 -17 9 -25 0 -31 -6 -3 -15 -4 -19 -2 -4 3 -8 -2
-8 -10 0 -10 -8 -16 -22 -15 -17 1 -19 2 -5 6 9 2 17 8 17 13 0 5 -6 7 -14 4
-12 -5 -25 38 -26 83 0 20 63 -20 77 -48z m-74 -114 c32 -49 65 -94 71 -100 7
-5 23 -28 36 -50 13 -22 39 -56 57 -75 18 -19 33 -39 33 -43 0 -5 19 -27 43
-50 23 -23 43 -48 45 -55 4 -23 -52 14 -95 62 -22 25 -43 42 -47 39 -3 -4 -6
-1 -6 6 0 6 -11 23 -25 37 -14 14 -28 36 -31 49 -3 14 -11 22 -17 18 -6 -4 -8
0 -4 9 6 18 -45 73 -57 61 -4 -4 -5 -1 -2 7 3 8 -5 27 -17 42 -22 28 -23 28
-40 8 -14 -17 -14 -20 -2 -20 8 0 15 -4 15 -10 0 -5 -5 -10 -11 -10 -7 0 -9
-13 -5 -37 3 -21 3 -32 0 -25 -3 6 -10 10 -15 6 -5 -3 -9 -2 -8 3 3 20 -2 27
-11 13 -7 -10 -10 27 -10 114 l0 129 21 -19 c12 -10 49 -59 82 -109z m594 96
c18 -23 16 -77 -3 -96 -15 -15 -17 -15 -30 3 -7 10 -16 43 -20 72 -7 52 -7 52
17 45 13 -4 29 -15 36 -24z m300 -36 c0 -8 -4 -12 -9 -9 -5 3 -6 10 -3 15 9
13 12 11 12 -6z m-116 -36 l-10 -24 0 26 c-1 14 2 29 6 33 12 12 14 -9 4 -35z
m-274 -107 c-6 -7 -6 -12 -1 -11 22 4 34 -2 34 -16 0 -13 -4 -14 -20 -5 -23
12 -25 7 -10 -21 7 -13 7 -19 0 -19 -5 0 -10 5 -10 12 0 6 -3 9 -6 5 -11 -11
-30 17 -36 53 -8 54 -1 64 32 38 20 -17 25 -26 17 -36z m-129 -3 c12 -22 22
-43 22 -45 0 -12 -39 -2 -51 13 -12 14 -12 16 0 8 11 -6 10 -2 -2 16 -20 28
-22 49 -4 49 7 0 23 -18 35 -41z m337 -45 c1 -28 -4 -44 -11 -44 -7 0 -10 -8
-8 -17 4 -14 -2 -18 -26 -20 -37 -3 -40 18 -7 44 13 10 22 24 19 31 -2 6 1 12
7 12 6 0 10 3 10 8 -1 4 -1 16 0 26 2 37 16 4 16 -40z m-58 14 c-3 -8 -6 -5
-6 6 -1 11 2 17 5 13 3 -3 4 -12 1 -19z m-273 -100 c-3 -4 2 -8 11 -8 9 0 13
-4 10 -10 -3 -5 -2 -10 3 -10 5 0 12 -9 15 -20 3 -11 1 -20 -4 -20 -5 0 -9 3
-9 8 0 4 -18 7 -40 6 -21 0 -37 3 -34 8 3 4 -1 8 -8 8 -8 0 -9 3 -3 8 13 10
18 35 5 27 -7 -4 -9 10 -8 40 l3 46 32 -37 c17 -21 29 -42 27 -46z m-510 20
c-4 -13 -2 -18 4 -14 13 8 36 -49 26 -65 -4 -7 -3 -10 3 -6 6 4 13 -2 16 -13
3 -11 3 -20 0 -20 -11 0 -30 27 -37 53 -3 15 -11 27 -16 27 -13 0 -32 48 -25
60 11 18 36 -2 29 -22z m418 0 c-8 -8 -9 -4 -5 13 4 13 8 18 11 10 2 -7 -1
-18 -6 -23z m348 -50 c0 -17 -3 -28 -7 -25 -7 8 -42 -59 -43 -83 0 -12 -3 -11
-11 3 -8 13 -7 22 1 31 8 11 7 14 -7 12 -23 -1 -28 27 -9 47 12 12 13 17 3 21
-6 4 -3 5 8 3 11 -2 26 2 33 10 21 22 32 15 32 -19z m-254 -66 c1 -7 0 -8 -3
-2 -2 5 -9 8 -14 4 -5 -3 -9 0 -9 6 0 15 23 7 26 -8z m-1588 -29 c2 -9 -9 -13
-38 -13 -33 0 -41 -3 -36 -15 3 -10 -2 -16 -17 -19 -12 -3 -46 -10 -76 -16
-30 -6 -60 -15 -67 -21 -8 -7 -14 -2 -19 18 -5 16 -8 31 -7 35 1 3 -12 9 -28
13 -17 4 -30 13 -30 21 0 12 25 14 157 12 114 -2 157 -6 161 -15z m82 3 c0 -8
-14 -15 -35 -18 -29 -3 -35 -1 -35 14 0 14 8 18 35 18 23 0 35 -5 35 -14z
m170 -1 c7 -8 25 -15 41 -15 16 0 29 -4 29 -10 0 -5 11 -10 25 -10 14 0 25 -4
25 -10 0 -5 6 -10 14 -10 19 0 128 -109 123 -123 -6 -19 -25 -19 -30 0 -4 14
-5 13 -6 -4 -1 -16 -7 -23 -20 -23 -10 0 -34 -14 -52 -31 -18 -17 -48 -33 -66
-36 -29 -5 -34 -2 -48 28 -8 19 -13 25 -10 14 4 -17 2 -16 -16 5 -12 14 -26
24 -30 23 -5 -2 -9 4 -9 12 0 8 -9 15 -19 15 -11 0 -22 4 -26 9 -3 5 -17 8
-30 5 -25 -4 -25 -3 -25 63 0 38 -3 78 -6 91 -6 21 -4 22 59 22 45 0 68 -4 77
-15z m3600 -9 c0 -19 4 -23 19 -19 10 3 29 -1 41 -7 18 -10 20 -14 9 -21 -12
-8 -11 -10 1 -8 30 3 78 -25 100 -60 12 -20 21 -39 21 -43 -1 -5 8 -17 19 -28
35 -35 26 -50 -28 -50 -26 0 -56 6 -67 14 -11 7 -42 17 -70 20 -48 7 -51 10
-74 56 -14 28 -40 62 -58 77 -18 15 -33 33 -33 39 0 6 -11 16 -25 22 -47 22
-27 32 60 32 83 0 85 -1 85 -24z m200 10 c0 -7 -9 -16 -20 -19 -12 -3 -20 -14
-20 -26 0 -26 -12 -27 -35 -1 -10 11 -33 22 -51 26 -19 3 -34 12 -34 20 0 11
18 14 80 14 61 0 80 -3 80 -14z m347 -8 c-2 -20 3 -23 36 -26 35 -3 38 -1 35
20 -3 22 -1 23 70 23 81 0 101 -17 32 -26 -25 -3 -35 -7 -22 -7 25 -2 30 -29
7 -38 -8 -3 -17 -14 -20 -25 -4 -10 -12 -19 -20 -19 -7 0 -16 -16 -19 -35 l-7
-36 -67 2 c-37 2 -82 -1 -99 -5 -29 -7 -34 -5 -45 20 -10 22 -10 28 0 32 6 2
12 10 12 18 0 20 27 17 39 -3 10 -17 10 -17 11 0 0 11 5 16 13 12 6 -4 3 1 -8
9 -11 9 -25 14 -31 12 -7 -3 -10 3 -7 14 3 10 -1 28 -7 40 -16 29 0 40 57 40
38 0 43 -2 40 -22z m-2632 -18 c-3 -5 1 -10 11 -10 13 0 15 -6 10 -32 -3 -18
-14 -36 -22 -41 -14 -8 -14 -11 -3 -18 11 -7 10 -9 -3 -9 -11 0 -18 -8 -18
-21 0 -11 -6 -27 -12 -34 -7 -8 -19 -21 -26 -30 -7 -8 -18 -12 -24 -9 -7 4 -8
2 -4 -4 4 -7 1 -12 -7 -12 -11 0 -14 11 -13 39 1 26 5 37 14 34 6 -3 12 1 12
8 0 11 2 12 9 1 9 -15 40 57 42 98 1 17 3 20 6 8 6 -22 19 -23 27 -3 3 9 -1
18 -9 21 -16 6 -11 24 6 24 6 0 7 -4 4 -10z m-1769 -56 c-8 -8 -22 -14 -31
-14 -14 0 -13 -3 5 -18 21 -17 22 -25 21 -147 -1 -72 -4 -156 -7 -187 -6 -54
-8 -58 -33 -58 -33 0 -43 -8 -59 -43 -10 -24 -14 -26 -32 -15 -11 7 -20 16
-20 21 0 4 -4 5 -10 2 -5 -3 -10 3 -10 14 0 12 -3 20 -7 20 -32 -5 -39 2 -35
34 3 17 10 35 16 39 7 5 6 8 -4 8 -9 1 -5 6 10 15 14 8 19 14 12 15 -7 0 -10
5 -7 10 10 16 0 12 -25 -10 -16 -14 -23 -31 -24 -60 0 -22 -5 -40 -10 -40 -5
0 -6 39 -2 88 3 48 8 125 11 172 8 114 11 127 35 133 18 4 20 0 21 -36 0 -31
3 -37 8 -22 4 10 7 30 5 43 -2 19 2 23 15 19 10 -2 26 0 36 6 23 13 118 35
128 30 4 -3 1 -11 -7 -19z m93 0 c3 -16 1 -17 -13 -5 -19 16 -21 34 -3 29 6
-3 14 -13 16 -24z m441 -124 c0 -11 5 -20 10 -20 6 0 9 -3 8 -7 -1 -5 4 -28
11 -52 7 -24 10 -52 8 -62 -3 -11 -1 -19 4 -19 5 0 9 -16 9 -36 l0 -36 -57 7
c-72 8 -96 29 -112 97 -10 47 -10 55 7 78 11 14 28 26 39 28 12 2 29 12 39 23
22 24 34 24 34 -1z m402 -117 c-2 -71 -5 -129 -7 -131 -2 -2 -19 0 -40 4 -26
5 -39 13 -46 31 -19 50 -63 103 -86 103 -17 0 -23 6 -23 21 0 12 -11 34 -25
51 -14 16 -25 34 -25 39 0 5 56 9 128 9 l127 0 -3 -127z m963 97 c-6 -9 -9 -9
-16 1 -10 17 0 34 13 21 6 -6 7 -16 3 -22z m685 20 c0 -5 -11 -12 -25 -16 -17
-4 -25 -13 -25 -27 0 -11 -3 -17 -7 -14 -3 4 -15 0 -25 -9 -15 -14 -16 -20 -5
-32 8 -10 12 -58 12 -154 0 -104 3 -138 12 -138 8 0 13 -14 13 -40 0 -31 -3
-38 -15 -34 -8 4 -15 16 -15 28 0 12 -4 16 -8 10 -10 -14 -104 -34 -130 -27
-20 5 -22 12 -22 83 0 107 -10 170 -26 170 -8 0 -14 -5 -14 -10 0 -7 -13 -8
-34 -5 -26 5 -36 3 -44 -11 -5 -9 -21 -18 -35 -18 -13 -1 -32 -8 -41 -15 -26
-22 -29 -6 -7 40 12 23 21 51 21 60 0 10 5 19 11 21 6 2 12 15 13 28 1 19 7
25 24 24 21 -1 21 0 5 18 -9 11 -11 18 -5 18 7 0 12 11 12 23 0 13 3 27 7 30
11 11 353 8 353 -3z m284 -12 c-1 -10 4 -18 11 -18 7 0 32 -9 56 -20 53 -24
104 -27 96 -6 -3 8 1 17 10 20 12 5 14 1 11 -19 -3 -14 -2 -25 3 -25 11 0 39
-59 39 -82 0 -10 5 -18 11 -18 6 0 9 -6 6 -14 -7 -16 27 -88 37 -79 3 4 6 -5
6 -18 1 -13 11 -46 24 -74 l24 -50 30 65 c16 36 32 73 35 83 10 28 25 20 36
-19 6 -20 17 -44 26 -54 22 -24 5 -32 -28 -15 -27 14 -44 5 -31 -17 4 -6 3 -8
-4 -4 -6 3 -15 -8 -22 -29 -13 -39 -41 -47 -76 -20 -21 16 -109 21 -99 5 14
-23 -16 -8 -31 15 -16 25 -16 27 6 50 29 30 38 117 12 107 -8 -3 -13 -1 -9 4
3 5 -6 10 -21 11 l-27 2 23 -16 c26 -18 30 -64 6 -84 -14 -11 -16 -10 -14 16
3 44 1 49 -14 36 -11 -10 -16 -8 -20 7 -4 11 -4 25 -1 33 3 8 -4 20 -15 27
-18 11 -21 10 -30 -13 -6 -15 -11 -63 -11 -108 -1 -59 -3 -74 -9 -52 -4 17 -8
25 -9 19 0 -5 -8 -19 -17 -30 -8 -10 -13 -13 -9 -6 3 6 1 12 -5 12 -6 0 -14 8
-17 18 -8 19 -34 48 -42 46 -3 -1 -13 1 -21 3 -8 3 -21 7 -28 9 -10 3 -13 28
-11 101 2 89 4 98 27 120 l25 23 -29 1 c-16 1 -33 0 -39 -1 -5 -1 -7 2 -3 6 4
4 3 13 -3 21 -9 10 -8 13 2 14 8 1 1 4 -15 8 -16 3 -31 12 -34 19 -3 10 17 12
90 10 81 -3 93 -5 92 -20z m166 2 c0 -23 -28 -41 -49 -30 -9 5 -31 14 -48 20
-51 19 -39 30 32 30 58 0 65 -2 65 -20z m670 10 c0 -5 -11 -12 -24 -16 -17 -4
-22 -11 -19 -25 3 -11 0 -19 -6 -19 -7 0 -9 -4 -6 -10 3 -6 -5 -10 -19 -10
-31 0 -56 37 -35 51 11 7 11 9 -2 9 -10 0 -19 -11 -22 -26 -6 -31 19 -61 55
-66 22 -3 23 -7 26 -90 2 -74 0 -88 -13 -88 -8 0 -15 -5 -15 -11 0 -6 7 -9 15
-5 12 4 15 -3 15 -34 0 -42 -12 -56 -38 -44 -15 6 -40 11 -90 16 -8 1 -11 9
-8 22 3 12 2 33 -2 46 -5 17 -9 1 -13 -55 -5 -79 -5 -79 -7 33 -2 101 -4 113
-19 111 -39 -3 -43 1 -43 47 0 26 -5 64 -12 86 -10 33 -9 41 3 49 11 7 10 9
-4 9 -12 0 -23 -12 -30 -30 -6 -16 -15 -30 -19 -30 -4 0 -11 -1 -15 -2 -3 -2
-7 5 -9 15 -1 11 2 17 10 14 8 -3 11 6 8 29 l-4 34 171 0 c105 0 171 -4 171
-10z m570 0 c0 -6 -11 -22 -24 -35 -25 -25 -24 -34 6 -30 9 2 19 -3 22 -10 3
-8 20 -22 37 -31 48 -24 64 -43 50 -57 -6 -6 -11 -17 -11 -25 0 -23 -43 -62
-70 -62 -25 -1 -25 -1 -5 -16 20 -15 20 -16 -3 -12 -12 2 -22 7 -22 12 1 5 -5
13 -13 17 -8 5 -18 20 -21 35 -4 14 -18 43 -31 64 -20 31 -21 39 -10 44 9 3
15 -1 15 -9 0 -8 6 -15 13 -15 9 0 9 -2 -1 -9 -11 -7 -11 -9 2 -14 9 -4 16 -2
16 4 0 5 10 14 23 19 17 7 18 9 5 9 -10 1 -17 6 -15 12 1 6 -4 14 -11 16 -8 3
-10 -1 -6 -11 3 -9 2 -16 -4 -16 -22 0 -20 34 5 80 24 45 53 66 53 40z m162
-12 c11 -18 10 -25 -7 -42 -9 -8 -16 -18 -16 -20 -4 -42 -9 -43 -57 -19 -26
13 -50 30 -55 39 -10 17 7 42 38 55 26 11 86 3 97 -13z m-3187 -106 c11 -17
26 -30 33 -27 6 2 12 0 12 -5 0 -14 -37 -12 -46 1 -4 8 -10 6 -17 -6 -10 -18
4 -35 30 -35 15 0 8 -41 -8 -51 -11 -7 27 -25 44 -21 12 3 8 -9 -13 -35 -18
-23 -25 -23 -21 0 1 5 -3 6 -7 3 -5 -3 -7 -17 -4 -31 2 -14 0 -25 -7 -25 -6 0
-8 -7 -4 -17 5 -12 2 -15 -10 -10 -13 5 -17 -2 -20 -36 -2 -23 -4 53 -5 169
-2 195 6 273 18 192 3 -18 14 -48 25 -66z m676 38 c5 0 9 -9 9 -20 0 -11 5
-20 11 -20 7 0 9 -10 7 -25 -3 -14 -1 -25 3 -25 5 0 9 -9 9 -20 0 -11 5 -20
11 -20 6 0 9 -7 5 -15 -3 -8 1 -27 9 -42 22 -43 52 -116 56 -137 6 -29 24 -30
25 -2 2 30 46 125 58 126 11 0 86 -81 86 -93 0 -12 -21 -4 -22 8 -1 14 -31 34
-41 28 -4 -2 -5 -9 -2 -14 4 -5 -1 -9 -10 -9 -13 0 -16 -6 -11 -25 16 -64 -51
-87 -95 -33 l-26 32 -28 -22 c-33 -26 -45 -28 -45 -7 0 8 5 15 10 15 6 0 10 5
10 11 0 14 -39 1 -60 -19 -13 -14 -15 -14 -18 1 -2 9 4 24 12 33 9 8 16 27 16
40 0 14 5 34 11 46 9 16 7 23 -12 36 -27 19 -69 34 -69 24 0 -4 10 -15 23 -24
18 -14 22 -25 19 -58 -2 -22 -8 -40 -12 -40 -8 0 -24 55 -23 77 0 7 -3 10 -8
7 -5 -3 -9 6 -9 20 0 21 -5 26 -25 26 -25 0 -25 0 -25 -95 0 -84 -2 -95 -17
-95 -27 1 -51 23 -59 56 -4 16 -10 31 -13 34 -4 3 -14 16 -23 31 -15 24 -15
26 6 45 11 12 40 32 64 45 23 13 73 56 110 96 61 65 67 69 70 47 2 -13 8 -24
13 -24z m2035 25 c16 -8 40 -11 57 -8 21 4 28 3 23 -5 -5 -8 4 -10 28 -7 31 4
37 1 50 -24 9 -16 12 -32 8 -36 -4 -5 -2 -5 4 -2 9 5 36 -36 44 -68 1 -5 10
-22 21 -36 25 -35 14 -66 -30 -89 -20 -11 -29 -19 -19 -20 9 0 20 5 23 10 9
15 25 12 19 -4 -7 -18 -55 -27 -71 -14 -7 6 -13 22 -13 37 -1 24 -2 24 -14 9
-7 -10 -18 -18 -23 -18 -16 0 -52 44 -64 78 -6 18 -15 32 -20 32 -5 0 -9 6 -9
14 0 8 -7 22 -16 30 -8 9 -12 16 -8 16 4 0 -1 9 -12 20 -39 39 -44 48 -44 75
0 8 -7 15 -15 15 -8 0 -15 5 -15 11 0 14 57 4 96 -16z m-3577 -66 c6 -18 11
-43 11 -55 0 -13 5 -24 10 -24 6 0 10 -9 10 -20 0 -22 -20 -26 -50 -10 -12 6
-20 26 -25 60 -4 27 -11 53 -16 56 -15 9 0 24 26 24 17 0 26 -8 34 -31z m3019
-32 c3 -48 0 -57 -19 -71 -16 -11 -26 -12 -35 -5 -7 6 -17 8 -23 5 -5 -3 -16
-3 -25 0 -14 5 -14 10 -1 41 8 19 12 39 9 44 -3 5 -1 9 5 9 5 0 12 8 16 19 4
14 14 18 38 16 31 -2 32 -3 35 -58z m-2618 -18 c17 -17 27 -36 23 -45 -7 -19
31 -56 50 -48 8 3 18 1 22 -5 3 -6 15 -11 26 -11 16 0 19 -6 16 -35 -1 -25 -7
-35 -19 -35 -41 0 -107 -44 -109 -72 0 -10 -2 -10 -6 0 -6 16 -24 16 -20 0 1
-7 -9 -14 -22 -16 -23 -4 -24 -2 -18 35 4 21 7 89 7 151 0 75 4 112 11 112 6
0 24 -14 39 -31z m1500 -84 c0 -21 -30 -31 -41 -14 -14 23 -11 29 16 29 16 0
25 -6 25 -15z m1146 4 c3 -6 0 -18 -9 -26 -12 -12 -18 -13 -35 -2 -19 12 -19
14 -4 26 21 15 39 16 48 2z m-2868 -44 c3 -34 2 -36 -12 -22 -9 9 -16 20 -16
26 0 5 -32 10 -75 10 l-75 0 0 -29 c0 -20 -5 -30 -15 -30 -16 0 -21 45 -7 67
7 12 77 19 157 17 39 -1 40 -2 43 -39z m1626 19 c5 -14 4 -15 -9 -4 -17 14
-19 20 -6 20 5 0 12 -7 15 -16z m-796 -36 l-1 -43 -4 38 c-3 30 -8 37 -19 33
-9 -3 -19 -6 -22 -6 -7 0 -8 -104 -1 -130 5 -18 -38 -27 -54 -11 -15 15 -28
14 -26 -1 4 -23 -20 -68 -36 -68 -10 0 -15 -10 -15 -30 0 -16 -4 -30 -10 -30
-23 0 -9 56 20 79 22 17 28 29 24 46 -3 13 1 28 10 38 9 8 16 21 16 27 0 13
39 70 60 87 8 7 25 13 38 13 20 0 22 -5 20 -42z m2011 6 c4 3 7 -5 6 -17 -1
-12 -3 -28 -4 -34 -2 -21 -15 -15 -38 20 -32 46 -30 64 2 43 14 -9 29 -15 34
-12z m-1157 -2 c-7 -2 -12 -8 -12 -13 0 -6 5 -7 10 -4 6 3 10 1 10 -4 0 -18
-24 -12 -37 9 -11 16 -10 18 2 14 8 -4 15 -1 15 6 0 6 5 8 12 4 9 -6 9 -9 0
-12z m2024 4 c10 -10 11 -17 3 -21 -6 -4 -19 2 -30 14 -17 18 -17 21 -4 21 9
0 23 -6 31 -14z m-2616 -23 c13 -17 20 -38 18 -56 -2 -24 -10 -31 -43 -43 -22
-7 -41 -14 -42 -14 -4 0 -1 106 3 123 8 25 40 21 64 -10z m-1850 -38 c0 -18
-30 -20 -31 -2 -2 29 -18 -51 -21 -104 -2 -33 -6 -59 -10 -59 -10 0 -11 194
-2 203 10 10 64 -22 64 -38z m4440 27 c0 -3 -7 -22 -17 -43 -11 -26 -24 -39
-42 -42 -36 -7 -37 -3 -8 35 13 18 27 41 30 50 6 16 37 16 37 0z m-3880 -43
c0 -13 -21 -22 -31 -12 -4 4 -6 19 -2 32 6 23 7 23 20 6 7 -11 13 -22 13 -26z
m2419 32 c7 -5 11 -14 7 -19 -4 -7 2 -9 15 -7 15 3 19 0 15 -11 -3 -8 -1 -12
4 -9 5 3 18 -12 30 -35 11 -22 16 -40 11 -40 -5 0 -12 11 -15 24 -6 26 -39 42
-92 45 -7 1 -14 15 -16 31 -5 31 11 40 41 21z m-2353 -24 c1 -20 -2 -23 -27
-19 -22 3 -26 7 -16 16 7 7 19 15 27 19 8 3 15 6 15 6 0 1 1 -9 1 -22z m961
-19 c-3 -7 -5 -2 -5 12 0 14 2 19 5 13 2 -7 2 -19 0 -25z m1986 -35 c-9 -23
-30 -14 -36 14 -3 16 -3 32 0 37 8 13 42 -35 36 -51z m235 29 c6 -18 -15 -14
-22 4 -4 10 -1 14 6 12 6 -2 14 -10 16 -16z m-338 -2 c0 -5 -5 -10 -11 -10 -5
0 -7 5 -4 10 3 6 8 10 11 10 2 0 4 -4 4 -10z m-3479 -52 c-9 -20 -10 -18 -10
17 0 31 2 36 9 23 6 -10 7 -25 1 -40z m769 25 c0 -19 -13 -9 -16 12 -1 8 2 13
7 9 5 -3 9 -12 9 -21z m-216 10 c4 -5 11 -8 14 -9 55 -6 80 -19 102 -52 36
-54 37 -59 2 -32 -17 14 -31 30 -31 36 -1 7 -17 15 -37 18 -19 4 -42 10 -49
12 -9 4 -21 -9 -33 -33 -11 -21 -35 -51 -53 -68 -32 -28 -101 -68 -124 -71 -5
0 -17 -4 -26 -8 -9 -4 -27 -6 -40 -5 -13 1 -36 1 -51 1 -26 -2 -28 -5 -28 -41
0 -22 -4 -42 -9 -45 -10 -6 -21 41 -21 88 l0 31 75 -3 c48 -2 81 1 90 8 8 6
19 9 25 5 5 -3 10 -3 10 2 0 4 14 14 32 22 38 17 108 89 108 112 0 15 18 39
30 39 4 0 10 -3 14 -7z m3316 -20 c0 -26 -1 -26 -14 -7 -11 14 -11 21 -3 26
17 11 17 11 17 -19z m-2873 -54 c24 -11 43 -27 43 -35 0 -18 -17 -18 -27 0 -4
7 -18 16 -29 20 -18 5 -22 2 -28 -25 -3 -17 -4 -43 -1 -57 4 -20 2 -18 -9 8
-21 52 -20 110 3 110 2 0 24 -9 48 -21z m1653 1 c0 -5 -9 -10 -21 -10 -11 0
-17 5 -14 10 3 6 13 10 21 10 8 0 14 -4 14 -10z m-810 -27 c14 -5 44 -8 67 -7
49 3 66 -11 24 -19 -49 -10 -141 11 -141 32 0 10 13 9 50 -6z m830 4 c0 -19
-20 -36 -37 -30 -11 5 -11 9 3 24 20 22 34 24 34 6z m440 4 c0 -4 -11 -6 -24
-4 -13 3 -27 0 -30 -6 -4 -6 -27 -11 -52 -11 -30 0 -43 4 -38 11 3 6 17 8 30
5 14 -4 24 -2 24 4 0 5 20 10 45 10 25 0 45 -4 45 -9z m197 -15 c-4 -11 -1
-13 10 -9 13 5 15 2 10 -11 -4 -10 -7 -23 -7 -29 0 -7 -7 1 -15 17 -18 34 -19
46 -4 46 6 0 9 -7 6 -14z m-1138 -23 c2 -2 -5 -3 -17 -3 -14 0 -22 6 -22 16 0
14 3 15 18 3 9 -7 19 -15 21 -16z m-1049 -20 c0 -19 -21 -16 -36 5 -20 26 -17
31 11 19 14 -7 25 -18 25 -24z m3290 12 c7 -9 6 -16 -4 -24 -12 -10 -18 -7
-30 17 -15 29 -15 30 4 25 11 -3 24 -11 30 -18z m-940 0 c0 -9 -6 -12 -15 -9
-8 4 -12 10 -9 15 8 14 24 10 24 -6z m-3516 -63 c2 -28 0 -52 -5 -52 -4 0 -16
-17 -26 -37 -17 -35 -83 -87 -83 -65 0 13 47 62 60 62 7 0 9 8 5 19 -4 13 0
23 10 29 9 5 16 12 16 15 -1 4 -1 25 -1 48 0 60 21 44 24 -19z m1226 23 c16
-8 38 -15 50 -15 11 0 20 -7 20 -15 0 -21 -46 -19 -98 5 -41 19 -42 20 -25 38
10 10 20 14 21 10 2 -5 17 -15 32 -23z m2690 5 c0 -10 6 -23 14 -27 14 -8 27
-93 15 -93 -10 0 -19 28 -19 62 0 25 -2 28 -14 19 -17 -14 -26 -3 -21 25 2 10
4 22 4 27 2 16 21 5 21 -13z m-2490 -5 c0 -8 -6 -15 -14 -15 -7 0 -19 -7 -26
-15 -13 -16 -70 -21 -70 -6 0 5 16 12 36 16 20 3 43 13 51 21 18 18 23 18 23
-1z m-232 -47 c12 2 22 -1 22 -7 0 -6 -10 -11 -23 -11 -24 0 -47 17 -47 35 0
5 6 3 13 -5 7 -8 22 -14 35 -12z m692 -30 c0 -9 -9 -22 -20 -28 -19 -10 -20
-9 -14 16 4 17 3 25 -3 21 -6 -4 -13 -21 -17 -38 -6 -32 -41 -68 -66 -68 -12
0 -12 2 3 13 9 7 17 18 17 25 0 6 4 11 8 11 4 0 13 20 20 44 11 44 12 44 42
33 18 -7 30 -19 30 -29z m925 -16 c3 -15 17 -40 30 -55 32 -34 32 -42 0 -21
-14 9 -22 20 -19 25 3 5 1 9 -4 9 -6 0 -15 14 -21 31 -13 39 -13 39 -2 39 5 0
12 -13 16 -28z m205 15 c0 -20 -80 -105 -81 -87 0 10 -3 8 -9 -5 -7 -16 -9
-17 -9 -3 -1 9 13 28 30 42 17 14 28 26 24 26 -3 0 -1 9 5 20 12 22 40 27 40
7z m-385 -46 c-4 -17 -15 -33 -26 -36 -10 -4 -19 -11 -19 -16 0 -5 -4 -9 -10
-9 -17 0 -6 23 24 52 15 16 25 28 21 28 -3 0 -3 5 0 11 12 18 17 2 10 -30z
m-2030 9 c3 -5 1 -10 -4 -10 -6 0 -11 5 -11 10 0 6 2 10 4 10 3 0 8 -4 11 -10z
m-385 -22 c0 -5 -7 -7 -16 -4 -12 4 -15 2 -10 -9 3 -8 1 -15 -4 -15 -15 0 -12
38 3 43 15 5 27 -1 27 -15z m4090 13 c0 -10 -56 -41 -74 -41 -15 0 3 16 39 34
35 19 35 19 35 7z m-320 -15 c0 -8 7 -17 16 -20 24 -9 10 -19 -15 -11 -12 3
-26 15 -31 26 -9 16 -7 19 10 19 11 0 20 -6 20 -14z m584 -2 c11 -28 6 -34
-14 -22 -11 7 -20 18 -20 25 0 18 27 16 34 -3z m-2557 -9 c0 -8 -4 -15 -9 -15
-10 0 -11 14 -1 23 9 10 10 9 10 -8z m1173 -5 c11 -11 15 -20 9 -20 -17 0 -49
20 -49 30 0 16 19 11 40 -10z"/>
<path d="M4193 5294 c-9 -23 2 -26 26 -6 l23 18 -22 1 c-11 1 -24 -5 -27 -13z"/>
<path d="M3819 5083 c-13 -16 -12 -17 4 -4 9 7 17 15 17 17 0 8 -8 3 -21 -13z"/>
<path d="M4060 4970 c0 -5 5 -10 11 -10 5 0 7 5 4 10 -3 6 -8 10 -11 10 -2 0
-4 -4 -4 -10z"/>
<path d="M3200 4999 c0 -5 5 -7 10 -4 6 3 10 8 10 11 0 2 -4 4 -10 4 -5 0 -10
-5 -10 -11z"/>
<path d="M3206 4964 c-5 -14 -4 -15 9 -4 17 14 19 20 6 20 -5 0 -12 -7 -15
-16z"/>
<path d="M2960 4950 c0 -5 5 -10 11 -10 5 0 7 5 4 10 -3 6 -8 10 -11 10 -2 0
-4 -4 -4 -10z"/>
<path d="M3481 4809 c-13 -11 -18 -19 -11 -19 6 0 18 -6 25 -14 12 -12 12 -16
1 -25 -7 -6 -15 -9 -18 -6 -7 8 -77 -63 -70 -71 4 -4 2 -4 -5 0 -6 3 -14 2
-18 -4 -10 -16 -25 -12 -25 7 0 11 -13 3 -40 -26 -22 -23 -40 -49 -40 -57 0
-12 2 -12 14 -2 8 7 12 16 9 21 -2 4 3 7 11 7 8 0 17 -4 20 -9 3 -4 18 -7 33
-5 16 2 73 5 128 5 l100 2 3 -32 c2 -18 -1 -31 -8 -31 -6 0 -8 -4 -5 -10 15
-23 101 -7 110 21 9 28 -6 48 -16 21 -6 -15 -17 -22 -34 -22 -15 0 -24 4 -21
9 4 5 1 11 -5 13 -5 2 -7 11 -3 21 5 14 15 18 43 15 31 -3 36 0 39 20 3 16 -2
22 -17 22 -11 0 -23 5 -26 10 -3 6 -17 10 -29 10 -24 0 -57 37 -55 62 0 7 4 4
9 -7 6 -14 7 -6 3 23 -4 32 -2 42 8 42 11 0 11 2 0 9 -10 7 -19 4 -27 -6 -6
-9 -22 -18 -35 -19 -13 -2 -18 0 -11 2 6 3 12 12 12 19 0 22 -24 24 -49 4z
m66 -139 c1 -11 -2 -18 -8 -15 -11 7 -12 35 -1 35 4 0 8 -9 9 -20z"/>
<path d="M3770 4566 c0 -2 7 -7 16 -10 8 -3 12 -2 9 4 -6 10 -25 14 -25 6z"/>
<path d="M3518 4543 c7 -3 16 -2 19 1 4 3 -2 6 -13 5 -11 0 -14 -3 -6 -6z"/>
<path d="M3805 4530 c3 -5 8 -10 11 -10 2 0 4 5 4 10 0 6 -5 10 -11 10 -5 0
-7 -4 -4 -10z"/>
<path d="M3345 4521 c-6 -5 -21 -11 -35 -13 -25 -4 -25 -4 4 -13 20 -5 36 -4
50 5 12 8 39 17 61 21 39 6 38 7 -15 8 -31 0 -60 -3 -65 -8z"/>
<path d="M3560 4496 c0 -2 9 -6 20 -9 11 -3 18 -1 14 4 -5 9 -34 13 -34 5z"/>
<path d="M2818 4386 c-19 -14 -23 -26 -10 -26 4 0 13 9 20 20 14 23 13 24 -10
6z"/>
<path d="M2756 4353 c-25 -13 -36 -17 -66 -22 -3 -1 2 -6 10 -12 12 -8 11 -9
-6 -4 -14 3 -24 0 -27 -8 -8 -20 7 -80 20 -84 17 -6 94 79 88 95 -3 7 0 10 5
7 13 -8 25 24 14 35 -5 5 -22 2 -38 -7z m-6 -47 c0 -3 -4 -8 -10 -11 -5 -3
-10 -1 -10 4 0 6 5 11 10 11 6 0 10 -2 10 -4z"/>
<path d="M2227 4086 c-4 -10 1 -12 14 -9 23 6 24 9 5 16 -8 3 -17 0 -19 -7z"/>
<path d="M2265 3960 c-3 -5 -1 -10 4 -10 6 0 11 5 11 10 0 6 -2 10 -4 10 -3 0
-8 -4 -11 -10z"/>
<path d="M2198 3943 c7 -3 16 -2 19 1 4 3 -2 6 -13 5 -11 0 -14 -3 -6 -6z"/>
<path d="M1823 3758 c-24 -5 -43 -13 -43 -17 0 -11 -46 -31 -71 -31 -11 0 -17
-4 -14 -10 3 -5 -3 -10 -15 -10 -12 0 -18 -4 -15 -11 4 -6 -2 -13 -13 -16 -11
-2 -22 -14 -25 -25 -3 -11 -15 -22 -26 -25 -12 -3 -21 -11 -21 -18 0 -7 -7
-15 -15 -19 -8 -3 -15 -12 -15 -21 0 -8 -5 -15 -11 -15 -5 0 -7 -4 -4 -10 3
-5 1 -10 -5 -10 -17 0 -53 -37 -46 -48 3 -5 -2 -9 -11 -8 -11 1 -17 -9 -20
-34 -3 -19 -8 -39 -13 -45 -4 -5 -11 -28 -15 -50 -4 -22 -10 -44 -14 -50 -7
-9 -31 -94 -31 -110 0 -14 40 34 65 80 60 109 131 192 208 243 27 18 53 30 58
27 5 -4 9 -2 9 3 0 9 31 23 55 26 6 1 13 6 17 11 5 6 8 5 8 -2 0 -7 -11 -20
-25 -29 -14 -9 -25 -22 -25 -29 0 -22 -34 -75 -52 -81 -10 -3 -15 -11 -11 -20
3 -7 0 -14 -6 -14 -6 0 -17 -13 -26 -30 -15 -30 -15 -30 9 -20 14 5 42 26 64
47 21 21 50 47 64 57 15 11 25 23 22 28 -3 4 1 8 9 8 33 0 100 83 112 140 4
19 12 41 17 48 6 6 7 12 3 12 -4 0 -1 7 6 17 10 12 11 17 2 20 -6 2 -21 13
-34 24 -12 10 -26 19 -30 19 -4 0 -13 2 -21 4 -7 2 -32 0 -55 -6z"/>
<path d="M1636 3735 c-9 -26 -7 -32 5 -12 6 10 9 21 6 23 -2 3 -7 -2 -11 -11z"/>
<path d="M1704 3280 c2 -16 20 -14 24 2 3 10 2 10 -6 -1 -7 -9 -11 -10 -15 -2
-4 7 -5 8 -3 1z"/>
<path d="M1860 3150 c0 -5 5 -10 11 -10 5 0 7 5 4 10 -3 6 -8 10 -11 10 -2 0
-4 -4 -4 -10z"/>
<path d="M1492 3098 c-17 -17 -15 -65 3 -72 29 -11 45 5 45 45 0 31 -4 39 -18
39 -10 0 -23 -5 -30 -12z m35 -28 c2 -12 -3 -20 -12 -20 -15 0 -21 31 -8 43 9
9 16 1 20 -23z"/>
<path d="M2935 4610 c3 -5 8 -10 11 -10 2 0 4 5 4 10 0 6 -5 10 -11 10 -5 0
-7 -4 -4 -10z"/>
<path d="M1981 4304 c0 -11 3 -14 6 -6 3 7 2 16 -1 19 -3 4 -6 -2 -5 -13z"/>
<path d="M2830 4520 c0 -5 9 -10 21 -10 11 0 17 5 14 10 -3 6 -13 10 -21 10
-8 0 -14 -4 -14 -10z"/>
<path d="M2640 4403 c0 -19 17 -24 30 -8 9 10 9 15 1 15 -6 0 -11 -6 -11 -12
0 -9 -4 -8 -10 2 -6 9 -10 10 -10 3z"/>
<path d="M3596 3885 c-3 -9 0 -15 9 -15 16 0 20 16 6 24 -5 3 -11 -1 -15 -9z"/>
<path d="M2576 3541 c-4 -5 3 -7 14 -4 23 6 26 13 6 13 -8 0 -17 -4 -20 -9z"/>
<path d="M2811 3240 c0 -8 4 -22 9 -30 12 -18 12 -2 0 25 -6 13 -9 15 -9 5z"/>
<path d="M2511 3144 c0 -11 3 -14 6 -6 3 7 2 16 -1 19 -3 4 -6 -2 -5 -13z"/>
<path d="M3485 2800 c3 -5 8 -10 11 -10 2 0 4 5 4 10 0 6 -5 10 -11 10 -5 0
-7 -4 -4 -10z"/>
<path d="M2227 2943 c-4 -3 -7 -11 -7 -17 0 -6 5 -5 12 2 6 6 9 14 7 17 -3 3
-9 2 -12 -2z"/>
<path d="M5548 1803 c7 -3 16 -2 19 1 4 3 -2 6 -13 5 -11 0 -14 -3 -6 -6z"/>
<path d="M1010 1760 c-23 -8 -22 -8 8 -7 17 1 32 5 32 9 0 9 -6 9 -40 -2z"/>
<path d="M900 1680 c0 -5 5 -10 10 -10 6 0 10 5 10 10 0 6 -4 10 -10 10 -5 0
-10 -4 -10 -10z"/>
<path d="M1557 1613 c-14 -13 -6 -24 13 -18 21 7 25 -13 5 -27 -5 -4 -2 -10 8
-14 19 -7 42 8 59 39 9 18 8 19 -16 13 -15 -4 -26 -2 -26 4 0 11 -33 14 -43 3z"/>
<path d="M3350 1641 c0 -5 9 -7 20 -4 11 3 20 7 20 9 0 2 -9 4 -20 4 -11 0
-20 -4 -20 -9z"/>
<path d="M3906 1415 c-3 -9 -6 -22 -5 -28 0 -7 5 -1 10 12 5 13 8 26 5 28 -2
2 -6 -3 -10 -12z"/>
<path d="M4603 1643 c9 -2 25 -2 35 0 9 3 1 5 -18 5 -19 0 -27 -2 -17 -5z"/>
<path d="M5353 1506 c3 -7 0 -20 -6 -27 -10 -11 -9 -11 5 0 15 11 15 41 1 41
-3 0 -3 -6 0 -14z"/>
<path d="M1862 1260 c0 -14 2 -19 5 -12 2 6 2 18 0 25 -3 6 -5 1 -5 -13z"/>
</g>
</svg>
